<?xml version="1.0" encoding="utf-8" standalone="no"?>
<!DOCTYPE svg PUBLIC "-//W3C//DTD SVG 1.1//EN"
  "http://www.w3.org/Graphics/SVG/1.1/DTD/svg11.dtd">
<svg xmlns:xlink="http://www.w3.org/1999/xlink" width="741.04625pt" height="415.293875pt" viewBox="0 0 741.04625 415.293875" xmlns="http://www.w3.org/2000/svg" version="1.1">
 <metadata>
  <rdf:RDF xmlns:dc="http://purl.org/dc/elements/1.1/" xmlns:cc="http://creativecommons.org/ns#" xmlns:rdf="http://www.w3.org/1999/02/22-rdf-syntax-ns#">
   <cc:Work>
    <dc:type rdf:resource="http://purl.org/dc/dcmitype/StillImage"/>
    <dc:date>2024-09-27T18:41:11.468543</dc:date>
    <dc:format>image/svg+xml</dc:format>
    <dc:creator>
     <cc:Agent>
      <dc:title>Matplotlib v3.8.0, https://matplotlib.org/</dc:title>
     </cc:Agent>
    </dc:creator>
   </cc:Work>
  </rdf:RDF>
 </metadata>
 <defs>
  <style type="text/css">*{stroke-linejoin: round; stroke-linecap: butt}</style>
 </defs>
 <g id="figure_1">
  <g id="patch_1">
   <path d="M 0 415.293875 
L 741.04625 415.293875 
L 741.04625 0 
L 0 0 
z
" style="fill: #ffffff"/>
  </g>
  <g id="axes_1">
   <g id="patch_2">
    <path d="M 64.24625 362.252625 
L 733.84625 362.252625 
L 733.84625 29.612625 
L 64.24625 29.612625 
z
" style="fill: #ffffff"/>
   </g>
   <g id="PathCollection_1">
    <defs>
     <path id="m86361b4858" d="M 0 3 
C 0.795609 3 1.55874 2.683901 2.12132 2.12132 
C 2.683901 1.55874 3 0.795609 3 0 
C 3 -0.795609 2.683901 -1.55874 2.12132 -2.12132 
C 1.55874 -2.683901 0.795609 -3 0 -3 
C -0.795609 -3 -1.55874 -2.683901 -2.12132 -2.12132 
C -2.683901 -1.55874 -3 -0.795609 -3 0 
C -3 0.795609 -2.683901 1.55874 -2.12132 2.12132 
C -1.55874 2.683901 -0.795609 3 0 3 
z
" style="stroke: #808080"/>
    </defs>
    <g clip-path="url(#paea5d9c12c)">
     <use xlink:href="#m86361b4858" x="120.04625" y="230.042685" style="fill: #808080; stroke: #808080"/>
     <use xlink:href="#m86361b4858" x="132.728068" y="184.836408" style="fill: #808080; stroke: #808080"/>
     <use xlink:href="#m86361b4858" x="196.137159" y="131.458738" style="fill: #808080; stroke: #808080"/>
     <use xlink:href="#m86361b4858" x="322.955341" y="98.762749" style="fill: #808080; stroke: #808080"/>
     <use xlink:href="#m86361b4858" x="576.591705" y="44.732625" style="fill: #808080; stroke: #808080"/>
    </g>
   </g>
   <g id="PathCollection_2">
    <defs>
     <path id="me181a0f8c9" d="M 0 3 
C 0.795609 3 1.55874 2.683901 2.12132 2.12132 
C 2.683901 1.55874 3 0.795609 3 0 
C 3 -0.795609 2.683901 -1.55874 2.12132 -2.12132 
C 1.55874 -2.683901 0.795609 -3 0 -3 
C -0.795609 -3 -1.55874 -2.683901 -2.12132 -2.12132 
C -2.683901 -1.55874 -3 -0.795609 -3 0 
C -3 0.795609 -2.683901 1.55874 -2.12132 2.12132 
C -1.55874 2.683901 -0.795609 3 0 3 
z
" style="stroke: #000000"/>
    </defs>
    <g clip-path="url(#paea5d9c12c)">
     <use xlink:href="#me181a0f8c9" x="94.682614" y="262.322107" style="stroke: #000000"/>
     <use xlink:href="#me181a0f8c9" x="132.728068" y="195.598582" style="stroke: #000000"/>
    </g>
   </g>
   <g id="PathCollection_3">
    <defs>
     <path id="me1ab2e259a" d="M 0 3 
C 0.795609 3 1.55874 2.683901 2.12132 2.12132 
C 2.683901 1.55874 3 0.795609 3 0 
C 3 -0.795609 2.683901 -1.55874 2.12132 -2.12132 
C 1.55874 -2.683901 0.795609 -3 0 -3 
C -0.795609 -3 -1.55874 -2.683901 -2.12132 -2.12132 
C -2.683901 -1.55874 -3 -0.795609 -3 0 
C -3 0.795609 -2.683901 1.55874 -2.12132 2.12132 
C -1.55874 2.683901 -0.795609 3 0 3 
z
" style="stroke: #1f77b4"/>
    </defs>
    <g clip-path="url(#paea5d9c12c)">
     <use xlink:href="#me1ab2e259a" x="132.728068" y="202.986679" style="fill: #1f77b4; stroke: #1f77b4"/>
     <use xlink:href="#me1ab2e259a" x="196.137159" y="149.625895" style="fill: #1f77b4; stroke: #1f77b4"/>
    </g>
   </g>
   <g id="PathCollection_4">
    <defs>
     <path id="m9615e59cb8" d="M 0 3 
C 0.795609 3 1.55874 2.683901 2.12132 2.12132 
C 2.683901 1.55874 3 0.795609 3 0 
C 3 -0.795609 2.683901 -1.55874 2.12132 -2.12132 
C 1.55874 -2.683901 0.795609 -3 0 -3 
C -0.795609 -3 -1.55874 -2.683901 -2.12132 -2.12132 
C -2.683901 -1.55874 -3 -0.795609 -3 0 
C -3 0.795609 -2.683901 1.55874 -2.12132 2.12132 
C -1.55874 2.683901 -0.795609 3 0 3 
z
" style="stroke: #ff7f0e"/>
    </defs>
    <g clip-path="url(#paea5d9c12c)">
     <use xlink:href="#m9615e59cb8" x="94.682614" y="343.18642" style="fill: #ff7f0e; stroke: #ff7f0e"/>
     <use xlink:href="#m9615e59cb8" x="132.728068" y="281.249032" style="fill: #ff7f0e; stroke: #ff7f0e"/>
     <use xlink:href="#m9615e59cb8" x="196.137159" y="218.794242" style="fill: #ff7f0e; stroke: #ff7f0e"/>
     <use xlink:href="#m9615e59cb8" x="322.955341" y="159.118869" style="fill: #ff7f0e; stroke: #ff7f0e"/>
    </g>
   </g>
   <g id="PathCollection_5">
    <defs>
     <path id="m540e3ac8ab" d="M 0 3 
C 0.795609 3 1.55874 2.683901 2.12132 2.12132 
C 2.683901 1.55874 3 0.795609 3 0 
C 3 -0.795609 2.683901 -1.55874 2.12132 -2.12132 
C 1.55874 -2.683901 0.795609 -3 0 -3 
C -0.795609 -3 -1.55874 -2.683901 -2.12132 -2.12132 
C -2.683901 -1.55874 -3 -0.795609 -3 0 
C -3 0.795609 -2.683901 1.55874 -2.12132 2.12132 
C -1.55874 2.683901 -0.795609 3 0 3 
z
" style="stroke: #2ca02c"/>
    </defs>
    <g clip-path="url(#paea5d9c12c)">
     <use xlink:href="#m540e3ac8ab" x="94.682614" y="253.630172" style="fill: #2ca02c; stroke: #2ca02c"/>
     <use xlink:href="#m540e3ac8ab" x="196.137159" y="208.517445" style="fill: #2ca02c; stroke: #2ca02c"/>
    </g>
   </g>
   <g id="PathCollection_6">
    <defs>
     <path id="m66e03895ed" d="M 0 3 
C 0.795609 3 1.55874 2.683901 2.12132 2.12132 
C 2.683901 1.55874 3 0.795609 3 0 
C 3 -0.795609 2.683901 -1.55874 2.12132 -2.12132 
C 1.55874 -2.683901 0.795609 -3 0 -3 
C -0.795609 -3 -1.55874 -2.683901 -2.12132 -2.12132 
C -2.683901 -1.55874 -3 -0.795609 -3 0 
C -3 0.795609 -2.683901 1.55874 -2.12132 2.12132 
C -1.55874 2.683901 -0.795609 3 0 3 
z
" style="stroke: #d62728"/>
    </defs>
    <g clip-path="url(#paea5d9c12c)">
     <use xlink:href="#m66e03895ed" x="94.682614" y="282.580549" style="fill: #d62728; stroke: #d62728"/>
     <use xlink:href="#m66e03895ed" x="196.137159" y="233.664258" style="fill: #d62728; stroke: #d62728"/>
     <use xlink:href="#m66e03895ed" x="322.955341" y="163.699581" style="fill: #d62728; stroke: #d62728"/>
    </g>
   </g>
   <g id="PathCollection_7">
    <defs>
     <path id="mc5725636ba" d="M 0 3 
C 0.795609 3 1.55874 2.683901 2.12132 2.12132 
C 2.683901 1.55874 3 0.795609 3 0 
C 3 -0.795609 2.683901 -1.55874 2.12132 -2.12132 
C 1.55874 -2.683901 0.795609 -3 0 -3 
C -0.795609 -3 -1.55874 -2.683901 -2.12132 -2.12132 
C -2.683901 -1.55874 -3 -0.795609 -3 0 
C -3 0.795609 -2.683901 1.55874 -2.12132 2.12132 
C -1.55874 2.683901 -0.795609 3 0 3 
z
" style="stroke: #9467bd"/>
    </defs>
    <g clip-path="url(#paea5d9c12c)">
     <use xlink:href="#mc5725636ba" x="94.682614" y="347.132625" style="fill: #9467bd; stroke: #9467bd"/>
     <use xlink:href="#mc5725636ba" x="196.137159" y="261.126632" style="fill: #9467bd; stroke: #9467bd"/>
     <use xlink:href="#mc5725636ba" x="322.955341" y="185.548054" style="fill: #9467bd; stroke: #9467bd"/>
     <use xlink:href="#mc5725636ba" x="703.409886" y="118.811897" style="fill: #9467bd; stroke: #9467bd"/>
    </g>
   </g>
   <g id="matplotlib.axis_1">
    <g id="xtick_1">
     <g id="line2d_1">
      <defs>
       <path id="m6bb8c8a9c0" d="M 0 0 
L 0 3.5 
" style="stroke: #000000; stroke-width: 0.8"/>
      </defs>
      <g>
       <use xlink:href="#m6bb8c8a9c0" x="69.318977" y="362.252625" style="stroke: #000000; stroke-width: 0.8"/>
      </g>
     </g>
     <g id="text_1">
      <!-- 0 -->
      <g transform="translate(63.592727 382.929812) scale(0.18 -0.18)">
       <defs>
        <path id="DejaVuSans-30" d="M 2034 4250 
Q 1547 4250 1301 3770 
Q 1056 3291 1056 2328 
Q 1056 1369 1301 889 
Q 1547 409 2034 409 
Q 2525 409 2770 889 
Q 3016 1369 3016 2328 
Q 3016 3291 2770 3770 
Q 2525 4250 2034 4250 
z
M 2034 4750 
Q 2819 4750 3233 4129 
Q 3647 3509 3647 2328 
Q 3647 1150 3233 529 
Q 2819 -91 2034 -91 
Q 1250 -91 836 529 
Q 422 1150 422 2328 
Q 422 3509 836 4129 
Q 1250 4750 2034 4750 
z
" transform="scale(0.015625)"/>
       </defs>
       <use xlink:href="#DejaVuSans-30"/>
      </g>
     </g>
    </g>
    <g id="xtick_2">
     <g id="line2d_2">
      <g>
       <use xlink:href="#m6bb8c8a9c0" x="196.137159" y="362.252625" style="stroke: #000000; stroke-width: 0.8"/>
      </g>
     </g>
     <g id="text_2">
      <!-- 5000 -->
      <g transform="translate(173.232159 382.929812) scale(0.18 -0.18)">
       <defs>
        <path id="DejaVuSans-35" d="M 691 4666 
L 3169 4666 
L 3169 4134 
L 1269 4134 
L 1269 2991 
Q 1406 3038 1543 3061 
Q 1681 3084 1819 3084 
Q 2600 3084 3056 2656 
Q 3513 2228 3513 1497 
Q 3513 744 3044 326 
Q 2575 -91 1722 -91 
Q 1428 -91 1123 -41 
Q 819 9 494 109 
L 494 744 
Q 775 591 1075 516 
Q 1375 441 1709 441 
Q 2250 441 2565 725 
Q 2881 1009 2881 1497 
Q 2881 1984 2565 2268 
Q 2250 2553 1709 2553 
Q 1456 2553 1204 2497 
Q 953 2441 691 2322 
L 691 4666 
z
" transform="scale(0.015625)"/>
       </defs>
       <use xlink:href="#DejaVuSans-35"/>
       <use xlink:href="#DejaVuSans-30" x="63.623047"/>
       <use xlink:href="#DejaVuSans-30" x="127.246094"/>
       <use xlink:href="#DejaVuSans-30" x="190.869141"/>
      </g>
     </g>
    </g>
    <g id="xtick_3">
     <g id="line2d_3">
      <g>
       <use xlink:href="#m6bb8c8a9c0" x="322.955341" y="362.252625" style="stroke: #000000; stroke-width: 0.8"/>
      </g>
     </g>
     <g id="text_3">
      <!-- 10000 -->
      <g transform="translate(294.324091 382.929812) scale(0.18 -0.18)">
       <defs>
        <path id="DejaVuSans-31" d="M 794 531 
L 1825 531 
L 1825 4091 
L 703 3866 
L 703 4441 
L 1819 4666 
L 2450 4666 
L 2450 531 
L 3481 531 
L 3481 0 
L 794 0 
L 794 531 
z
" transform="scale(0.015625)"/>
       </defs>
       <use xlink:href="#DejaVuSans-31"/>
       <use xlink:href="#DejaVuSans-30" x="63.623047"/>
       <use xlink:href="#DejaVuSans-30" x="127.246094"/>
       <use xlink:href="#DejaVuSans-30" x="190.869141"/>
       <use xlink:href="#DejaVuSans-30" x="254.492188"/>
      </g>
     </g>
    </g>
    <g id="xtick_4">
     <g id="line2d_4">
      <g>
       <use xlink:href="#m6bb8c8a9c0" x="449.773523" y="362.252625" style="stroke: #000000; stroke-width: 0.8"/>
      </g>
     </g>
     <g id="text_4">
      <!-- 15000 -->
      <g transform="translate(421.142273 382.929812) scale(0.18 -0.18)">
       <use xlink:href="#DejaVuSans-31"/>
       <use xlink:href="#DejaVuSans-35" x="63.623047"/>
       <use xlink:href="#DejaVuSans-30" x="127.246094"/>
       <use xlink:href="#DejaVuSans-30" x="190.869141"/>
       <use xlink:href="#DejaVuSans-30" x="254.492188"/>
      </g>
     </g>
    </g>
    <g id="xtick_5">
     <g id="line2d_5">
      <g>
       <use xlink:href="#m6bb8c8a9c0" x="576.591705" y="362.252625" style="stroke: #000000; stroke-width: 0.8"/>
      </g>
     </g>
     <g id="text_5">
      <!-- 20000 -->
      <g transform="translate(547.960455 382.929812) scale(0.18 -0.18)">
       <defs>
        <path id="DejaVuSans-32" d="M 1228 531 
L 3431 531 
L 3431 0 
L 469 0 
L 469 531 
Q 828 903 1448 1529 
Q 2069 2156 2228 2338 
Q 2531 2678 2651 2914 
Q 2772 3150 2772 3378 
Q 2772 3750 2511 3984 
Q 2250 4219 1831 4219 
Q 1534 4219 1204 4116 
Q 875 4013 500 3803 
L 500 4441 
Q 881 4594 1212 4672 
Q 1544 4750 1819 4750 
Q 2544 4750 2975 4387 
Q 3406 4025 3406 3419 
Q 3406 3131 3298 2873 
Q 3191 2616 2906 2266 
Q 2828 2175 2409 1742 
Q 1991 1309 1228 531 
z
" transform="scale(0.015625)"/>
       </defs>
       <use xlink:href="#DejaVuSans-32"/>
       <use xlink:href="#DejaVuSans-30" x="63.623047"/>
       <use xlink:href="#DejaVuSans-30" x="127.246094"/>
       <use xlink:href="#DejaVuSans-30" x="190.869141"/>
       <use xlink:href="#DejaVuSans-30" x="254.492188"/>
      </g>
     </g>
    </g>
    <g id="xtick_6">
     <g id="line2d_6">
      <g>
       <use xlink:href="#m6bb8c8a9c0" x="703.409886" y="362.252625" style="stroke: #000000; stroke-width: 0.8"/>
      </g>
     </g>
     <g id="text_6">
      <!-- 25000 -->
      <g transform="translate(674.778636 382.929812) scale(0.18 -0.18)">
       <use xlink:href="#DejaVuSans-32"/>
       <use xlink:href="#DejaVuSans-35" x="63.623047"/>
       <use xlink:href="#DejaVuSans-30" x="127.246094"/>
       <use xlink:href="#DejaVuSans-30" x="190.869141"/>
       <use xlink:href="#DejaVuSans-30" x="254.492188"/>
      </g>
     </g>
    </g>
    <g id="text_7">
     <!-- Total number of cells in the network -->
     <g transform="translate(237.368281 404.350437) scale(0.18 -0.18)">
      <defs>
       <path id="DejaVuSans-54" d="M -19 4666 
L 3928 4666 
L 3928 4134 
L 2272 4134 
L 2272 0 
L 1638 0 
L 1638 4134 
L -19 4134 
L -19 4666 
z
" transform="scale(0.015625)"/>
       <path id="DejaVuSans-6f" d="M 1959 3097 
Q 1497 3097 1228 2736 
Q 959 2375 959 1747 
Q 959 1119 1226 758 
Q 1494 397 1959 397 
Q 2419 397 2687 759 
Q 2956 1122 2956 1747 
Q 2956 2369 2687 2733 
Q 2419 3097 1959 3097 
z
M 1959 3584 
Q 2709 3584 3137 3096 
Q 3566 2609 3566 1747 
Q 3566 888 3137 398 
Q 2709 -91 1959 -91 
Q 1206 -91 779 398 
Q 353 888 353 1747 
Q 353 2609 779 3096 
Q 1206 3584 1959 3584 
z
" transform="scale(0.015625)"/>
       <path id="DejaVuSans-74" d="M 1172 4494 
L 1172 3500 
L 2356 3500 
L 2356 3053 
L 1172 3053 
L 1172 1153 
Q 1172 725 1289 603 
Q 1406 481 1766 481 
L 2356 481 
L 2356 0 
L 1766 0 
Q 1100 0 847 248 
Q 594 497 594 1153 
L 594 3053 
L 172 3053 
L 172 3500 
L 594 3500 
L 594 4494 
L 1172 4494 
z
" transform="scale(0.015625)"/>
       <path id="DejaVuSans-61" d="M 2194 1759 
Q 1497 1759 1228 1600 
Q 959 1441 959 1056 
Q 959 750 1161 570 
Q 1363 391 1709 391 
Q 2188 391 2477 730 
Q 2766 1069 2766 1631 
L 2766 1759 
L 2194 1759 
z
M 3341 1997 
L 3341 0 
L 2766 0 
L 2766 531 
Q 2569 213 2275 61 
Q 1981 -91 1556 -91 
Q 1019 -91 701 211 
Q 384 513 384 1019 
Q 384 1609 779 1909 
Q 1175 2209 1959 2209 
L 2766 2209 
L 2766 2266 
Q 2766 2663 2505 2880 
Q 2244 3097 1772 3097 
Q 1472 3097 1187 3025 
Q 903 2953 641 2809 
L 641 3341 
Q 956 3463 1253 3523 
Q 1550 3584 1831 3584 
Q 2591 3584 2966 3190 
Q 3341 2797 3341 1997 
z
" transform="scale(0.015625)"/>
       <path id="DejaVuSans-6c" d="M 603 4863 
L 1178 4863 
L 1178 0 
L 603 0 
L 603 4863 
z
" transform="scale(0.015625)"/>
       <path id="DejaVuSans-20" transform="scale(0.015625)"/>
       <path id="DejaVuSans-6e" d="M 3513 2113 
L 3513 0 
L 2938 0 
L 2938 2094 
Q 2938 2591 2744 2837 
Q 2550 3084 2163 3084 
Q 1697 3084 1428 2787 
Q 1159 2491 1159 1978 
L 1159 0 
L 581 0 
L 581 3500 
L 1159 3500 
L 1159 2956 
Q 1366 3272 1645 3428 
Q 1925 3584 2291 3584 
Q 2894 3584 3203 3211 
Q 3513 2838 3513 2113 
z
" transform="scale(0.015625)"/>
       <path id="DejaVuSans-75" d="M 544 1381 
L 544 3500 
L 1119 3500 
L 1119 1403 
Q 1119 906 1312 657 
Q 1506 409 1894 409 
Q 2359 409 2629 706 
Q 2900 1003 2900 1516 
L 2900 3500 
L 3475 3500 
L 3475 0 
L 2900 0 
L 2900 538 
Q 2691 219 2414 64 
Q 2138 -91 1772 -91 
Q 1169 -91 856 284 
Q 544 659 544 1381 
z
M 1991 3584 
L 1991 3584 
z
" transform="scale(0.015625)"/>
       <path id="DejaVuSans-6d" d="M 3328 2828 
Q 3544 3216 3844 3400 
Q 4144 3584 4550 3584 
Q 5097 3584 5394 3201 
Q 5691 2819 5691 2113 
L 5691 0 
L 5113 0 
L 5113 2094 
Q 5113 2597 4934 2840 
Q 4756 3084 4391 3084 
Q 3944 3084 3684 2787 
Q 3425 2491 3425 1978 
L 3425 0 
L 2847 0 
L 2847 2094 
Q 2847 2600 2669 2842 
Q 2491 3084 2119 3084 
Q 1678 3084 1418 2786 
Q 1159 2488 1159 1978 
L 1159 0 
L 581 0 
L 581 3500 
L 1159 3500 
L 1159 2956 
Q 1356 3278 1631 3431 
Q 1906 3584 2284 3584 
Q 2666 3584 2933 3390 
Q 3200 3197 3328 2828 
z
" transform="scale(0.015625)"/>
       <path id="DejaVuSans-62" d="M 3116 1747 
Q 3116 2381 2855 2742 
Q 2594 3103 2138 3103 
Q 1681 3103 1420 2742 
Q 1159 2381 1159 1747 
Q 1159 1113 1420 752 
Q 1681 391 2138 391 
Q 2594 391 2855 752 
Q 3116 1113 3116 1747 
z
M 1159 2969 
Q 1341 3281 1617 3432 
Q 1894 3584 2278 3584 
Q 2916 3584 3314 3078 
Q 3713 2572 3713 1747 
Q 3713 922 3314 415 
Q 2916 -91 2278 -91 
Q 1894 -91 1617 61 
Q 1341 213 1159 525 
L 1159 0 
L 581 0 
L 581 4863 
L 1159 4863 
L 1159 2969 
z
" transform="scale(0.015625)"/>
       <path id="DejaVuSans-65" d="M 3597 1894 
L 3597 1613 
L 953 1613 
Q 991 1019 1311 708 
Q 1631 397 2203 397 
Q 2534 397 2845 478 
Q 3156 559 3463 722 
L 3463 178 
Q 3153 47 2828 -22 
Q 2503 -91 2169 -91 
Q 1331 -91 842 396 
Q 353 884 353 1716 
Q 353 2575 817 3079 
Q 1281 3584 2069 3584 
Q 2775 3584 3186 3129 
Q 3597 2675 3597 1894 
z
M 3022 2063 
Q 3016 2534 2758 2815 
Q 2500 3097 2075 3097 
Q 1594 3097 1305 2825 
Q 1016 2553 972 2059 
L 3022 2063 
z
" transform="scale(0.015625)"/>
       <path id="DejaVuSans-72" d="M 2631 2963 
Q 2534 3019 2420 3045 
Q 2306 3072 2169 3072 
Q 1681 3072 1420 2755 
Q 1159 2438 1159 1844 
L 1159 0 
L 581 0 
L 581 3500 
L 1159 3500 
L 1159 2956 
Q 1341 3275 1631 3429 
Q 1922 3584 2338 3584 
Q 2397 3584 2469 3576 
Q 2541 3569 2628 3553 
L 2631 2963 
z
" transform="scale(0.015625)"/>
       <path id="DejaVuSans-66" d="M 2375 4863 
L 2375 4384 
L 1825 4384 
Q 1516 4384 1395 4259 
Q 1275 4134 1275 3809 
L 1275 3500 
L 2222 3500 
L 2222 3053 
L 1275 3053 
L 1275 0 
L 697 0 
L 697 3053 
L 147 3053 
L 147 3500 
L 697 3500 
L 697 3744 
Q 697 4328 969 4595 
Q 1241 4863 1831 4863 
L 2375 4863 
z
" transform="scale(0.015625)"/>
       <path id="DejaVuSans-63" d="M 3122 3366 
L 3122 2828 
Q 2878 2963 2633 3030 
Q 2388 3097 2138 3097 
Q 1578 3097 1268 2742 
Q 959 2388 959 1747 
Q 959 1106 1268 751 
Q 1578 397 2138 397 
Q 2388 397 2633 464 
Q 2878 531 3122 666 
L 3122 134 
Q 2881 22 2623 -34 
Q 2366 -91 2075 -91 
Q 1284 -91 818 406 
Q 353 903 353 1747 
Q 353 2603 823 3093 
Q 1294 3584 2113 3584 
Q 2378 3584 2631 3529 
Q 2884 3475 3122 3366 
z
" transform="scale(0.015625)"/>
       <path id="DejaVuSans-73" d="M 2834 3397 
L 2834 2853 
Q 2591 2978 2328 3040 
Q 2066 3103 1784 3103 
Q 1356 3103 1142 2972 
Q 928 2841 928 2578 
Q 928 2378 1081 2264 
Q 1234 2150 1697 2047 
L 1894 2003 
Q 2506 1872 2764 1633 
Q 3022 1394 3022 966 
Q 3022 478 2636 193 
Q 2250 -91 1575 -91 
Q 1294 -91 989 -36 
Q 684 19 347 128 
L 347 722 
Q 666 556 975 473 
Q 1284 391 1588 391 
Q 1994 391 2212 530 
Q 2431 669 2431 922 
Q 2431 1156 2273 1281 
Q 2116 1406 1581 1522 
L 1381 1569 
Q 847 1681 609 1914 
Q 372 2147 372 2553 
Q 372 3047 722 3315 
Q 1072 3584 1716 3584 
Q 2034 3584 2315 3537 
Q 2597 3491 2834 3397 
z
" transform="scale(0.015625)"/>
       <path id="DejaVuSans-69" d="M 603 3500 
L 1178 3500 
L 1178 0 
L 603 0 
L 603 3500 
z
M 603 4863 
L 1178 4863 
L 1178 4134 
L 603 4134 
L 603 4863 
z
" transform="scale(0.015625)"/>
       <path id="DejaVuSans-68" d="M 3513 2113 
L 3513 0 
L 2938 0 
L 2938 2094 
Q 2938 2591 2744 2837 
Q 2550 3084 2163 3084 
Q 1697 3084 1428 2787 
Q 1159 2491 1159 1978 
L 1159 0 
L 581 0 
L 581 4863 
L 1159 4863 
L 1159 2956 
Q 1366 3272 1645 3428 
Q 1925 3584 2291 3584 
Q 2894 3584 3203 3211 
Q 3513 2838 3513 2113 
z
" transform="scale(0.015625)"/>
       <path id="DejaVuSans-77" d="M 269 3500 
L 844 3500 
L 1563 769 
L 2278 3500 
L 2956 3500 
L 3675 769 
L 4391 3500 
L 4966 3500 
L 4050 0 
L 3372 0 
L 2619 2869 
L 1863 0 
L 1184 0 
L 269 3500 
z
" transform="scale(0.015625)"/>
       <path id="DejaVuSans-6b" d="M 581 4863 
L 1159 4863 
L 1159 1991 
L 2875 3500 
L 3609 3500 
L 1753 1863 
L 3688 0 
L 2938 0 
L 1159 1709 
L 1159 0 
L 581 0 
L 581 4863 
z
" transform="scale(0.015625)"/>
      </defs>
      <use xlink:href="#DejaVuSans-54"/>
      <use xlink:href="#DejaVuSans-6f" x="44.083984"/>
      <use xlink:href="#DejaVuSans-74" x="105.265625"/>
      <use xlink:href="#DejaVuSans-61" x="144.474609"/>
      <use xlink:href="#DejaVuSans-6c" x="205.753906"/>
      <use xlink:href="#DejaVuSans-20" x="233.537109"/>
      <use xlink:href="#DejaVuSans-6e" x="265.324219"/>
      <use xlink:href="#DejaVuSans-75" x="328.703125"/>
      <use xlink:href="#DejaVuSans-6d" x="392.082031"/>
      <use xlink:href="#DejaVuSans-62" x="489.494141"/>
      <use xlink:href="#DejaVuSans-65" x="552.970703"/>
      <use xlink:href="#DejaVuSans-72" x="614.494141"/>
      <use xlink:href="#DejaVuSans-20" x="655.607422"/>
      <use xlink:href="#DejaVuSans-6f" x="687.394531"/>
      <use xlink:href="#DejaVuSans-66" x="748.576172"/>
      <use xlink:href="#DejaVuSans-20" x="783.78125"/>
      <use xlink:href="#DejaVuSans-63" x="815.568359"/>
      <use xlink:href="#DejaVuSans-65" x="870.548828"/>
      <use xlink:href="#DejaVuSans-6c" x="932.072266"/>
      <use xlink:href="#DejaVuSans-6c" x="959.855469"/>
      <use xlink:href="#DejaVuSans-73" x="987.638672"/>
      <use xlink:href="#DejaVuSans-20" x="1039.738281"/>
      <use xlink:href="#DejaVuSans-69" x="1071.525391"/>
      <use xlink:href="#DejaVuSans-6e" x="1099.308594"/>
      <use xlink:href="#DejaVuSans-20" x="1162.6875"/>
      <use xlink:href="#DejaVuSans-74" x="1194.474609"/>
      <use xlink:href="#DejaVuSans-68" x="1233.683594"/>
      <use xlink:href="#DejaVuSans-65" x="1297.0625"/>
      <use xlink:href="#DejaVuSans-20" x="1358.585938"/>
      <use xlink:href="#DejaVuSans-6e" x="1390.373047"/>
      <use xlink:href="#DejaVuSans-65" x="1453.751953"/>
      <use xlink:href="#DejaVuSans-74" x="1515.275391"/>
      <use xlink:href="#DejaVuSans-77" x="1554.484375"/>
      <use xlink:href="#DejaVuSans-6f" x="1636.271484"/>
      <use xlink:href="#DejaVuSans-72" x="1697.453125"/>
      <use xlink:href="#DejaVuSans-6b" x="1738.566406"/>
     </g>
    </g>
   </g>
   <g id="matplotlib.axis_2">
    <g id="ytick_1">
     <g id="line2d_7">
      <defs>
       <path id="m358fc8d44f" d="M 0 0 
L -3.5 0 
" style="stroke: #000000; stroke-width: 0.8"/>
      </defs>
      <g>
       <use xlink:href="#m358fc8d44f" x="64.24625" y="318.82923" style="stroke: #000000; stroke-width: 0.8"/>
      </g>
     </g>
     <g id="text_8">
      <!-- 2.0 -->
      <g transform="translate(28.620625 325.667824) scale(0.18 -0.18)">
       <defs>
        <path id="DejaVuSans-2e" d="M 684 794 
L 1344 794 
L 1344 0 
L 684 0 
L 684 794 
z
" transform="scale(0.015625)"/>
       </defs>
       <use xlink:href="#DejaVuSans-32"/>
       <use xlink:href="#DejaVuSans-2e" x="63.623047"/>
       <use xlink:href="#DejaVuSans-30" x="95.410156"/>
      </g>
     </g>
    </g>
    <g id="ytick_2">
     <g id="line2d_8">
      <g>
       <use xlink:href="#m358fc8d44f" x="64.24625" y="271.25466" style="stroke: #000000; stroke-width: 0.8"/>
      </g>
     </g>
     <g id="text_9">
      <!-- 2.5 -->
      <g transform="translate(28.620625 278.093253) scale(0.18 -0.18)">
       <use xlink:href="#DejaVuSans-32"/>
       <use xlink:href="#DejaVuSans-2e" x="63.623047"/>
       <use xlink:href="#DejaVuSans-35" x="95.410156"/>
      </g>
     </g>
    </g>
    <g id="ytick_3">
     <g id="line2d_9">
      <g>
       <use xlink:href="#m358fc8d44f" x="64.24625" y="223.680089" style="stroke: #000000; stroke-width: 0.8"/>
      </g>
     </g>
     <g id="text_10">
      <!-- 3.0 -->
      <g transform="translate(28.620625 230.518683) scale(0.18 -0.18)">
       <defs>
        <path id="DejaVuSans-33" d="M 2597 2516 
Q 3050 2419 3304 2112 
Q 3559 1806 3559 1356 
Q 3559 666 3084 287 
Q 2609 -91 1734 -91 
Q 1441 -91 1130 -33 
Q 819 25 488 141 
L 488 750 
Q 750 597 1062 519 
Q 1375 441 1716 441 
Q 2309 441 2620 675 
Q 2931 909 2931 1356 
Q 2931 1769 2642 2001 
Q 2353 2234 1838 2234 
L 1294 2234 
L 1294 2753 
L 1863 2753 
Q 2328 2753 2575 2939 
Q 2822 3125 2822 3475 
Q 2822 3834 2567 4026 
Q 2313 4219 1838 4219 
Q 1578 4219 1281 4162 
Q 984 4106 628 3988 
L 628 4550 
Q 988 4650 1302 4700 
Q 1616 4750 1894 4750 
Q 2613 4750 3031 4423 
Q 3450 4097 3450 3541 
Q 3450 3153 3228 2886 
Q 3006 2619 2597 2516 
z
" transform="scale(0.015625)"/>
       </defs>
       <use xlink:href="#DejaVuSans-33"/>
       <use xlink:href="#DejaVuSans-2e" x="63.623047"/>
       <use xlink:href="#DejaVuSans-30" x="95.410156"/>
      </g>
     </g>
    </g>
    <g id="ytick_4">
     <g id="line2d_10">
      <g>
       <use xlink:href="#m358fc8d44f" x="64.24625" y="176.105519" style="stroke: #000000; stroke-width: 0.8"/>
      </g>
     </g>
     <g id="text_11">
      <!-- 3.5 -->
      <g transform="translate(28.620625 182.944113) scale(0.18 -0.18)">
       <use xlink:href="#DejaVuSans-33"/>
       <use xlink:href="#DejaVuSans-2e" x="63.623047"/>
       <use xlink:href="#DejaVuSans-35" x="95.410156"/>
      </g>
     </g>
    </g>
    <g id="ytick_5">
     <g id="line2d_11">
      <g>
       <use xlink:href="#m358fc8d44f" x="64.24625" y="128.530949" style="stroke: #000000; stroke-width: 0.8"/>
      </g>
     </g>
     <g id="text_12">
      <!-- 4.0 -->
      <g transform="translate(28.620625 135.369543) scale(0.18 -0.18)">
       <defs>
        <path id="DejaVuSans-34" d="M 2419 4116 
L 825 1625 
L 2419 1625 
L 2419 4116 
z
M 2253 4666 
L 3047 4666 
L 3047 1625 
L 3713 1625 
L 3713 1100 
L 3047 1100 
L 3047 0 
L 2419 0 
L 2419 1100 
L 313 1100 
L 313 1709 
L 2253 4666 
z
" transform="scale(0.015625)"/>
       </defs>
       <use xlink:href="#DejaVuSans-34"/>
       <use xlink:href="#DejaVuSans-2e" x="63.623047"/>
       <use xlink:href="#DejaVuSans-30" x="95.410156"/>
      </g>
     </g>
    </g>
    <g id="ytick_6">
     <g id="line2d_12">
      <g>
       <use xlink:href="#m358fc8d44f" x="64.24625" y="80.956379" style="stroke: #000000; stroke-width: 0.8"/>
      </g>
     </g>
     <g id="text_13">
      <!-- 4.5 -->
      <g transform="translate(28.620625 87.794973) scale(0.18 -0.18)">
       <use xlink:href="#DejaVuSans-34"/>
       <use xlink:href="#DejaVuSans-2e" x="63.623047"/>
       <use xlink:href="#DejaVuSans-35" x="95.410156"/>
      </g>
     </g>
    </g>
    <g id="ytick_7">
     <g id="line2d_13">
      <g>
       <use xlink:href="#m358fc8d44f" x="64.24625" y="33.381809" style="stroke: #000000; stroke-width: 0.8"/>
      </g>
     </g>
     <g id="text_14">
      <!-- 5.0 -->
      <g transform="translate(28.620625 40.220403) scale(0.18 -0.18)">
       <use xlink:href="#DejaVuSans-35"/>
       <use xlink:href="#DejaVuSans-2e" x="63.623047"/>
       <use xlink:href="#DejaVuSans-30" x="95.410156"/>
      </g>
     </g>
    </g>
    <g id="text_15">
     <!-- Log10 simulation time (log10 ms) -->
     <g transform="translate(20.877187 347.802) rotate(-90) scale(0.18 -0.18)">
      <defs>
       <path id="DejaVuSans-4c" d="M 628 4666 
L 1259 4666 
L 1259 531 
L 3531 531 
L 3531 0 
L 628 0 
L 628 4666 
z
" transform="scale(0.015625)"/>
       <path id="DejaVuSans-67" d="M 2906 1791 
Q 2906 2416 2648 2759 
Q 2391 3103 1925 3103 
Q 1463 3103 1205 2759 
Q 947 2416 947 1791 
Q 947 1169 1205 825 
Q 1463 481 1925 481 
Q 2391 481 2648 825 
Q 2906 1169 2906 1791 
z
M 3481 434 
Q 3481 -459 3084 -895 
Q 2688 -1331 1869 -1331 
Q 1566 -1331 1297 -1286 
Q 1028 -1241 775 -1147 
L 775 -588 
Q 1028 -725 1275 -790 
Q 1522 -856 1778 -856 
Q 2344 -856 2625 -561 
Q 2906 -266 2906 331 
L 2906 616 
Q 2728 306 2450 153 
Q 2172 0 1784 0 
Q 1141 0 747 490 
Q 353 981 353 1791 
Q 353 2603 747 3093 
Q 1141 3584 1784 3584 
Q 2172 3584 2450 3431 
Q 2728 3278 2906 2969 
L 2906 3500 
L 3481 3500 
L 3481 434 
z
" transform="scale(0.015625)"/>
       <path id="DejaVuSans-28" d="M 1984 4856 
Q 1566 4138 1362 3434 
Q 1159 2731 1159 2009 
Q 1159 1288 1364 580 
Q 1569 -128 1984 -844 
L 1484 -844 
Q 1016 -109 783 600 
Q 550 1309 550 2009 
Q 550 2706 781 3412 
Q 1013 4119 1484 4856 
L 1984 4856 
z
" transform="scale(0.015625)"/>
       <path id="DejaVuSans-29" d="M 513 4856 
L 1013 4856 
Q 1481 4119 1714 3412 
Q 1947 2706 1947 2009 
Q 1947 1309 1714 600 
Q 1481 -109 1013 -844 
L 513 -844 
Q 928 -128 1133 580 
Q 1338 1288 1338 2009 
Q 1338 2731 1133 3434 
Q 928 4138 513 4856 
z
" transform="scale(0.015625)"/>
      </defs>
      <use xlink:href="#DejaVuSans-4c"/>
      <use xlink:href="#DejaVuSans-6f" x="53.962891"/>
      <use xlink:href="#DejaVuSans-67" x="115.144531"/>
      <use xlink:href="#DejaVuSans-31" x="178.621094"/>
      <use xlink:href="#DejaVuSans-30" x="242.244141"/>
      <use xlink:href="#DejaVuSans-20" x="305.867188"/>
      <use xlink:href="#DejaVuSans-73" x="337.654297"/>
      <use xlink:href="#DejaVuSans-69" x="389.753906"/>
      <use xlink:href="#DejaVuSans-6d" x="417.537109"/>
      <use xlink:href="#DejaVuSans-75" x="514.949219"/>
      <use xlink:href="#DejaVuSans-6c" x="578.328125"/>
      <use xlink:href="#DejaVuSans-61" x="606.111328"/>
      <use xlink:href="#DejaVuSans-74" x="667.390625"/>
      <use xlink:href="#DejaVuSans-69" x="706.599609"/>
      <use xlink:href="#DejaVuSans-6f" x="734.382812"/>
      <use xlink:href="#DejaVuSans-6e" x="795.564453"/>
      <use xlink:href="#DejaVuSans-20" x="858.943359"/>
      <use xlink:href="#DejaVuSans-74" x="890.730469"/>
      <use xlink:href="#DejaVuSans-69" x="929.939453"/>
      <use xlink:href="#DejaVuSans-6d" x="957.722656"/>
      <use xlink:href="#DejaVuSans-65" x="1055.134766"/>
      <use xlink:href="#DejaVuSans-20" x="1116.658203"/>
      <use xlink:href="#DejaVuSans-28" x="1148.445312"/>
      <use xlink:href="#DejaVuSans-6c" x="1187.458984"/>
      <use xlink:href="#DejaVuSans-6f" x="1215.242188"/>
      <use xlink:href="#DejaVuSans-67" x="1276.423828"/>
      <use xlink:href="#DejaVuSans-31" x="1339.900391"/>
      <use xlink:href="#DejaVuSans-30" x="1403.523438"/>
      <use xlink:href="#DejaVuSans-20" x="1467.146484"/>
      <use xlink:href="#DejaVuSans-6d" x="1498.933594"/>
      <use xlink:href="#DejaVuSans-73" x="1596.345703"/>
      <use xlink:href="#DejaVuSans-29" x="1648.445312"/>
     </g>
    </g>
   </g>
   <g id="line2d_14">
    <path d="M 120.04625 230.042685 
L 132.728068 184.836408 
L 196.137159 131.458738 
L 322.955341 98.762749 
L 576.591705 44.732625 
" clip-path="url(#paea5d9c12c)" style="fill: none; stroke-dasharray: 5.55,2.4; stroke-dashoffset: 0; stroke: #808080; stroke-width: 1.5"/>
   </g>
   <g id="line2d_15">
    <path d="M 94.682614 262.322107 
L 132.728068 195.598582 
" clip-path="url(#paea5d9c12c)" style="fill: none; stroke-dasharray: 5.55,2.4; stroke-dashoffset: 0; stroke: #000000; stroke-width: 1.5"/>
   </g>
   <g id="line2d_16">
    <path d="M 132.728068 202.986679 
L 196.137159 149.625895 
" clip-path="url(#paea5d9c12c)" style="fill: none; stroke: #1f77b4; stroke-width: 1.5; stroke-linecap: square"/>
   </g>
   <g id="line2d_17">
    <path d="M 94.682614 343.18642 
L 132.728068 281.249032 
L 196.137159 218.794242 
L 322.955341 159.118869 
" clip-path="url(#paea5d9c12c)" style="fill: none; stroke: #ff7f0e; stroke-width: 1.5; stroke-linecap: square"/>
   </g>
   <g id="line2d_18">
    <path d="M 94.682614 253.630172 
L 196.137159 208.517445 
" clip-path="url(#paea5d9c12c)" style="fill: none; stroke: #2ca02c; stroke-width: 1.5; stroke-linecap: square"/>
   </g>
   <g id="line2d_19">
    <path d="M 94.682614 282.580549 
L 196.137159 233.664258 
L 322.955341 163.699581 
" clip-path="url(#paea5d9c12c)" style="fill: none; stroke: #d62728; stroke-width: 1.5; stroke-linecap: square"/>
   </g>
   <g id="line2d_20">
    <path d="M 94.682614 347.132625 
L 196.137159 261.126632 
L 322.955341 185.548054 
L 703.409886 118.811897 
" clip-path="url(#paea5d9c12c)" style="fill: none; stroke: #9467bd; stroke-width: 1.5; stroke-linecap: square"/>
   </g>
   <g id="patch_3">
    <path d="M 64.24625 362.252625 
L 64.24625 29.612625 
" style="fill: none; stroke: #000000; stroke-width: 0.8; stroke-linejoin: miter; stroke-linecap: square"/>
   </g>
   <g id="patch_4">
    <path d="M 733.84625 362.252625 
L 733.84625 29.612625 
" style="fill: none; stroke: #000000; stroke-width: 0.8; stroke-linejoin: miter; stroke-linecap: square"/>
   </g>
   <g id="patch_5">
    <path d="M 64.24625 362.252625 
L 733.84625 362.252625 
" style="fill: none; stroke: #000000; stroke-width: 0.8; stroke-linejoin: miter; stroke-linecap: square"/>
   </g>
   <g id="patch_6">
    <path d="M 64.24625 29.612625 
L 733.84625 29.612625 
" style="fill: none; stroke: #000000; stroke-width: 0.8; stroke-linejoin: miter; stroke-linecap: square"/>
   </g>
   <g id="text_16">
    <!-- Single-node setups for the PING-Assembly network -->
    <g transform="translate(123.712063 23.612625) scale(0.216 -0.216)">
     <defs>
      <path id="DejaVuSans-53" d="M 3425 4513 
L 3425 3897 
Q 3066 4069 2747 4153 
Q 2428 4238 2131 4238 
Q 1616 4238 1336 4038 
Q 1056 3838 1056 3469 
Q 1056 3159 1242 3001 
Q 1428 2844 1947 2747 
L 2328 2669 
Q 3034 2534 3370 2195 
Q 3706 1856 3706 1288 
Q 3706 609 3251 259 
Q 2797 -91 1919 -91 
Q 1588 -91 1214 -16 
Q 841 59 441 206 
L 441 856 
Q 825 641 1194 531 
Q 1563 422 1919 422 
Q 2459 422 2753 634 
Q 3047 847 3047 1241 
Q 3047 1584 2836 1778 
Q 2625 1972 2144 2069 
L 1759 2144 
Q 1053 2284 737 2584 
Q 422 2884 422 3419 
Q 422 4038 858 4394 
Q 1294 4750 2059 4750 
Q 2388 4750 2728 4690 
Q 3069 4631 3425 4513 
z
" transform="scale(0.015625)"/>
      <path id="DejaVuSans-2d" d="M 313 2009 
L 1997 2009 
L 1997 1497 
L 313 1497 
L 313 2009 
z
" transform="scale(0.015625)"/>
      <path id="DejaVuSans-64" d="M 2906 2969 
L 2906 4863 
L 3481 4863 
L 3481 0 
L 2906 0 
L 2906 525 
Q 2725 213 2448 61 
Q 2172 -91 1784 -91 
Q 1150 -91 751 415 
Q 353 922 353 1747 
Q 353 2572 751 3078 
Q 1150 3584 1784 3584 
Q 2172 3584 2448 3432 
Q 2725 3281 2906 2969 
z
M 947 1747 
Q 947 1113 1208 752 
Q 1469 391 1925 391 
Q 2381 391 2643 752 
Q 2906 1113 2906 1747 
Q 2906 2381 2643 2742 
Q 2381 3103 1925 3103 
Q 1469 3103 1208 2742 
Q 947 2381 947 1747 
z
" transform="scale(0.015625)"/>
      <path id="DejaVuSans-70" d="M 1159 525 
L 1159 -1331 
L 581 -1331 
L 581 3500 
L 1159 3500 
L 1159 2969 
Q 1341 3281 1617 3432 
Q 1894 3584 2278 3584 
Q 2916 3584 3314 3078 
Q 3713 2572 3713 1747 
Q 3713 922 3314 415 
Q 2916 -91 2278 -91 
Q 1894 -91 1617 61 
Q 1341 213 1159 525 
z
M 3116 1747 
Q 3116 2381 2855 2742 
Q 2594 3103 2138 3103 
Q 1681 3103 1420 2742 
Q 1159 2381 1159 1747 
Q 1159 1113 1420 752 
Q 1681 391 2138 391 
Q 2594 391 2855 752 
Q 3116 1113 3116 1747 
z
" transform="scale(0.015625)"/>
      <path id="DejaVuSans-50" d="M 1259 4147 
L 1259 2394 
L 2053 2394 
Q 2494 2394 2734 2622 
Q 2975 2850 2975 3272 
Q 2975 3691 2734 3919 
Q 2494 4147 2053 4147 
L 1259 4147 
z
M 628 4666 
L 2053 4666 
Q 2838 4666 3239 4311 
Q 3641 3956 3641 3272 
Q 3641 2581 3239 2228 
Q 2838 1875 2053 1875 
L 1259 1875 
L 1259 0 
L 628 0 
L 628 4666 
z
" transform="scale(0.015625)"/>
      <path id="DejaVuSans-49" d="M 628 4666 
L 1259 4666 
L 1259 0 
L 628 0 
L 628 4666 
z
" transform="scale(0.015625)"/>
      <path id="DejaVuSans-4e" d="M 628 4666 
L 1478 4666 
L 3547 763 
L 3547 4666 
L 4159 4666 
L 4159 0 
L 3309 0 
L 1241 3903 
L 1241 0 
L 628 0 
L 628 4666 
z
" transform="scale(0.015625)"/>
      <path id="DejaVuSans-47" d="M 3809 666 
L 3809 1919 
L 2778 1919 
L 2778 2438 
L 4434 2438 
L 4434 434 
Q 4069 175 3628 42 
Q 3188 -91 2688 -91 
Q 1594 -91 976 548 
Q 359 1188 359 2328 
Q 359 3472 976 4111 
Q 1594 4750 2688 4750 
Q 3144 4750 3555 4637 
Q 3966 4525 4313 4306 
L 4313 3634 
Q 3963 3931 3569 4081 
Q 3175 4231 2741 4231 
Q 1884 4231 1454 3753 
Q 1025 3275 1025 2328 
Q 1025 1384 1454 906 
Q 1884 428 2741 428 
Q 3075 428 3337 486 
Q 3600 544 3809 666 
z
" transform="scale(0.015625)"/>
      <path id="DejaVuSans-41" d="M 2188 4044 
L 1331 1722 
L 3047 1722 
L 2188 4044 
z
M 1831 4666 
L 2547 4666 
L 4325 0 
L 3669 0 
L 3244 1197 
L 1141 1197 
L 716 0 
L 50 0 
L 1831 4666 
z
" transform="scale(0.015625)"/>
      <path id="DejaVuSans-79" d="M 2059 -325 
Q 1816 -950 1584 -1140 
Q 1353 -1331 966 -1331 
L 506 -1331 
L 506 -850 
L 844 -850 
Q 1081 -850 1212 -737 
Q 1344 -625 1503 -206 
L 1606 56 
L 191 3500 
L 800 3500 
L 1894 763 
L 2988 3500 
L 3597 3500 
L 2059 -325 
z
" transform="scale(0.015625)"/>
     </defs>
     <use xlink:href="#DejaVuSans-53"/>
     <use xlink:href="#DejaVuSans-69" x="63.476562"/>
     <use xlink:href="#DejaVuSans-6e" x="91.259766"/>
     <use xlink:href="#DejaVuSans-67" x="154.638672"/>
     <use xlink:href="#DejaVuSans-6c" x="218.115234"/>
     <use xlink:href="#DejaVuSans-65" x="245.898438"/>
     <use xlink:href="#DejaVuSans-2d" x="307.421875"/>
     <use xlink:href="#DejaVuSans-6e" x="343.505859"/>
     <use xlink:href="#DejaVuSans-6f" x="406.884766"/>
     <use xlink:href="#DejaVuSans-64" x="468.066406"/>
     <use xlink:href="#DejaVuSans-65" x="531.542969"/>
     <use xlink:href="#DejaVuSans-20" x="593.066406"/>
     <use xlink:href="#DejaVuSans-73" x="624.853516"/>
     <use xlink:href="#DejaVuSans-65" x="676.953125"/>
     <use xlink:href="#DejaVuSans-74" x="738.476562"/>
     <use xlink:href="#DejaVuSans-75" x="777.685547"/>
     <use xlink:href="#DejaVuSans-70" x="841.064453"/>
     <use xlink:href="#DejaVuSans-73" x="904.541016"/>
     <use xlink:href="#DejaVuSans-20" x="956.640625"/>
     <use xlink:href="#DejaVuSans-66" x="988.427734"/>
     <use xlink:href="#DejaVuSans-6f" x="1023.632812"/>
     <use xlink:href="#DejaVuSans-72" x="1084.814453"/>
     <use xlink:href="#DejaVuSans-20" x="1125.927734"/>
     <use xlink:href="#DejaVuSans-74" x="1157.714844"/>
     <use xlink:href="#DejaVuSans-68" x="1196.923828"/>
     <use xlink:href="#DejaVuSans-65" x="1260.302734"/>
     <use xlink:href="#DejaVuSans-20" x="1321.826172"/>
     <use xlink:href="#DejaVuSans-50" x="1353.613281"/>
     <use xlink:href="#DejaVuSans-49" x="1413.916016"/>
     <use xlink:href="#DejaVuSans-4e" x="1443.408203"/>
     <use xlink:href="#DejaVuSans-47" x="1518.212891"/>
     <use xlink:href="#DejaVuSans-2d" x="1595.703125"/>
     <use xlink:href="#DejaVuSans-41" x="1629.537109"/>
     <use xlink:href="#DejaVuSans-73" x="1697.945312"/>
     <use xlink:href="#DejaVuSans-73" x="1750.044922"/>
     <use xlink:href="#DejaVuSans-65" x="1802.144531"/>
     <use xlink:href="#DejaVuSans-6d" x="1863.667969"/>
     <use xlink:href="#DejaVuSans-62" x="1961.080078"/>
     <use xlink:href="#DejaVuSans-6c" x="2024.556641"/>
     <use xlink:href="#DejaVuSans-79" x="2052.339844"/>
     <use xlink:href="#DejaVuSans-20" x="2111.519531"/>
     <use xlink:href="#DejaVuSans-6e" x="2143.306641"/>
     <use xlink:href="#DejaVuSans-65" x="2206.685547"/>
     <use xlink:href="#DejaVuSans-74" x="2268.208984"/>
     <use xlink:href="#DejaVuSans-77" x="2307.417969"/>
     <use xlink:href="#DejaVuSans-6f" x="2389.205078"/>
     <use xlink:href="#DejaVuSans-72" x="2450.386719"/>
     <use xlink:href="#DejaVuSans-6b" x="2491.5"/>
    </g>
   </g>
   <g id="legend_1">
    <g id="patch_7">
     <path d="M 434.916875 353.252625 
L 721.24625 353.252625 
Q 724.84625 353.252625 724.84625 349.652625 
L 724.84625 166.50825 
Q 724.84625 162.90825 721.24625 162.90825 
L 434.916875 162.90825 
Q 431.316875 162.90825 431.316875 166.50825 
L 431.316875 349.652625 
Q 431.316875 353.252625 434.916875 353.252625 
z
" style="fill: #ffffff; opacity: 0.8; stroke: #cccccc; stroke-linejoin: miter"/>
    </g>
    <g id="line2d_21">
     <path d="M 438.516875 177.485437 
L 456.516875 177.485437 
L 474.516875 177.485437 
" style="fill: none; stroke-dasharray: 5.55,2.4; stroke-dashoffset: 0; stroke: #808080; stroke-width: 1.5"/>
    </g>
    <g id="text_17">
     <!-- Server, 2 CPU cores, 2A -->
     <g transform="translate(488.916875 183.785438) scale(0.18 -0.18)">
      <defs>
       <path id="DejaVuSans-76" d="M 191 3500 
L 800 3500 
L 1894 563 
L 2988 3500 
L 3597 3500 
L 2284 0 
L 1503 0 
L 191 3500 
z
" transform="scale(0.015625)"/>
       <path id="DejaVuSans-2c" d="M 750 794 
L 1409 794 
L 1409 256 
L 897 -744 
L 494 -744 
L 750 256 
L 750 794 
z
" transform="scale(0.015625)"/>
       <path id="DejaVuSans-43" d="M 4122 4306 
L 4122 3641 
Q 3803 3938 3442 4084 
Q 3081 4231 2675 4231 
Q 1875 4231 1450 3742 
Q 1025 3253 1025 2328 
Q 1025 1406 1450 917 
Q 1875 428 2675 428 
Q 3081 428 3442 575 
Q 3803 722 4122 1019 
L 4122 359 
Q 3791 134 3420 21 
Q 3050 -91 2638 -91 
Q 1578 -91 968 557 
Q 359 1206 359 2328 
Q 359 3453 968 4101 
Q 1578 4750 2638 4750 
Q 3056 4750 3426 4639 
Q 3797 4528 4122 4306 
z
" transform="scale(0.015625)"/>
       <path id="DejaVuSans-55" d="M 556 4666 
L 1191 4666 
L 1191 1831 
Q 1191 1081 1462 751 
Q 1734 422 2344 422 
Q 2950 422 3222 751 
Q 3494 1081 3494 1831 
L 3494 4666 
L 4128 4666 
L 4128 1753 
Q 4128 841 3676 375 
Q 3225 -91 2344 -91 
Q 1459 -91 1007 375 
Q 556 841 556 1753 
L 556 4666 
z
" transform="scale(0.015625)"/>
      </defs>
      <use xlink:href="#DejaVuSans-53"/>
      <use xlink:href="#DejaVuSans-65" x="63.476562"/>
      <use xlink:href="#DejaVuSans-72" x="125"/>
      <use xlink:href="#DejaVuSans-76" x="166.113281"/>
      <use xlink:href="#DejaVuSans-65" x="225.292969"/>
      <use xlink:href="#DejaVuSans-72" x="286.816406"/>
      <use xlink:href="#DejaVuSans-2c" x="327.929688"/>
      <use xlink:href="#DejaVuSans-20" x="359.716797"/>
      <use xlink:href="#DejaVuSans-32" x="391.503906"/>
      <use xlink:href="#DejaVuSans-20" x="455.126953"/>
      <use xlink:href="#DejaVuSans-43" x="486.914062"/>
      <use xlink:href="#DejaVuSans-50" x="556.738281"/>
      <use xlink:href="#DejaVuSans-55" x="617.041016"/>
      <use xlink:href="#DejaVuSans-20" x="690.234375"/>
      <use xlink:href="#DejaVuSans-63" x="722.021484"/>
      <use xlink:href="#DejaVuSans-6f" x="777.001953"/>
      <use xlink:href="#DejaVuSans-72" x="838.183594"/>
      <use xlink:href="#DejaVuSans-65" x="877.046875"/>
      <use xlink:href="#DejaVuSans-73" x="938.570312"/>
      <use xlink:href="#DejaVuSans-2c" x="990.669922"/>
      <use xlink:href="#DejaVuSans-20" x="1022.457031"/>
      <use xlink:href="#DejaVuSans-32" x="1054.244141"/>
      <use xlink:href="#DejaVuSans-41" x="1117.867188"/>
     </g>
    </g>
    <g id="line2d_22">
     <path d="M 438.516875 203.906062 
L 456.516875 203.906062 
L 474.516875 203.906062 
" style="fill: none; stroke-dasharray: 5.55,2.4; stroke-dashoffset: 0; stroke: #000000; stroke-width: 1.5"/>
    </g>
    <g id="text_18">
     <!-- Desktop, 2 CPU cores, 2A -->
     <g transform="translate(488.916875 210.206063) scale(0.18 -0.18)">
      <defs>
       <path id="DejaVuSans-44" d="M 1259 4147 
L 1259 519 
L 2022 519 
Q 2988 519 3436 956 
Q 3884 1394 3884 2338 
Q 3884 3275 3436 3711 
Q 2988 4147 2022 4147 
L 1259 4147 
z
M 628 4666 
L 1925 4666 
Q 3281 4666 3915 4102 
Q 4550 3538 4550 2338 
Q 4550 1131 3912 565 
Q 3275 0 1925 0 
L 628 0 
L 628 4666 
z
" transform="scale(0.015625)"/>
      </defs>
      <use xlink:href="#DejaVuSans-44"/>
      <use xlink:href="#DejaVuSans-65" x="77.001953"/>
      <use xlink:href="#DejaVuSans-73" x="138.525391"/>
      <use xlink:href="#DejaVuSans-6b" x="190.625"/>
      <use xlink:href="#DejaVuSans-74" x="248.535156"/>
      <use xlink:href="#DejaVuSans-6f" x="287.744141"/>
      <use xlink:href="#DejaVuSans-70" x="348.925781"/>
      <use xlink:href="#DejaVuSans-2c" x="412.402344"/>
      <use xlink:href="#DejaVuSans-20" x="444.189453"/>
      <use xlink:href="#DejaVuSans-32" x="475.976562"/>
      <use xlink:href="#DejaVuSans-20" x="539.599609"/>
      <use xlink:href="#DejaVuSans-43" x="571.386719"/>
      <use xlink:href="#DejaVuSans-50" x="641.210938"/>
      <use xlink:href="#DejaVuSans-55" x="701.513672"/>
      <use xlink:href="#DejaVuSans-20" x="774.707031"/>
      <use xlink:href="#DejaVuSans-63" x="806.494141"/>
      <use xlink:href="#DejaVuSans-6f" x="861.474609"/>
      <use xlink:href="#DejaVuSans-72" x="922.65625"/>
      <use xlink:href="#DejaVuSans-65" x="961.519531"/>
      <use xlink:href="#DejaVuSans-73" x="1023.042969"/>
      <use xlink:href="#DejaVuSans-2c" x="1075.142578"/>
      <use xlink:href="#DejaVuSans-20" x="1106.929688"/>
      <use xlink:href="#DejaVuSans-32" x="1138.716797"/>
      <use xlink:href="#DejaVuSans-41" x="1202.339844"/>
     </g>
    </g>
    <g id="line2d_23">
     <path d="M 438.516875 230.326687 
L 456.516875 230.326687 
L 474.516875 230.326687 
" style="fill: none; stroke: #1f77b4; stroke-width: 1.5; stroke-linecap: square"/>
    </g>
    <g id="text_19">
     <!-- 2 CPU cores, 2A -->
     <g transform="translate(488.916875 236.626688) scale(0.18 -0.18)">
      <use xlink:href="#DejaVuSans-32"/>
      <use xlink:href="#DejaVuSans-20" x="63.623047"/>
      <use xlink:href="#DejaVuSans-43" x="95.410156"/>
      <use xlink:href="#DejaVuSans-50" x="165.234375"/>
      <use xlink:href="#DejaVuSans-55" x="225.537109"/>
      <use xlink:href="#DejaVuSans-20" x="298.730469"/>
      <use xlink:href="#DejaVuSans-63" x="330.517578"/>
      <use xlink:href="#DejaVuSans-6f" x="385.498047"/>
      <use xlink:href="#DejaVuSans-72" x="446.679688"/>
      <use xlink:href="#DejaVuSans-65" x="485.542969"/>
      <use xlink:href="#DejaVuSans-73" x="547.066406"/>
      <use xlink:href="#DejaVuSans-2c" x="599.166016"/>
      <use xlink:href="#DejaVuSans-20" x="630.953125"/>
      <use xlink:href="#DejaVuSans-32" x="662.740234"/>
      <use xlink:href="#DejaVuSans-41" x="726.363281"/>
     </g>
    </g>
    <g id="line2d_24">
     <path d="M 438.516875 256.747312 
L 456.516875 256.747312 
L 474.516875 256.747312 
" style="fill: none; stroke: #ff7f0e; stroke-width: 1.5; stroke-linecap: square"/>
    </g>
    <g id="text_20">
     <!-- 2 A30 units, 2A -->
     <g transform="translate(488.916875 263.047312) scale(0.18 -0.18)">
      <use xlink:href="#DejaVuSans-32"/>
      <use xlink:href="#DejaVuSans-20" x="63.623047"/>
      <use xlink:href="#DejaVuSans-41" x="95.410156"/>
      <use xlink:href="#DejaVuSans-33" x="163.818359"/>
      <use xlink:href="#DejaVuSans-30" x="227.441406"/>
      <use xlink:href="#DejaVuSans-20" x="291.064453"/>
      <use xlink:href="#DejaVuSans-75" x="322.851562"/>
      <use xlink:href="#DejaVuSans-6e" x="386.230469"/>
      <use xlink:href="#DejaVuSans-69" x="449.609375"/>
      <use xlink:href="#DejaVuSans-74" x="477.392578"/>
      <use xlink:href="#DejaVuSans-73" x="516.601562"/>
      <use xlink:href="#DejaVuSans-2c" x="568.701172"/>
      <use xlink:href="#DejaVuSans-20" x="600.488281"/>
      <use xlink:href="#DejaVuSans-32" x="632.275391"/>
      <use xlink:href="#DejaVuSans-41" x="695.898438"/>
     </g>
    </g>
    <g id="line2d_25">
     <path d="M 438.516875 283.167937 
L 456.516875 283.167937 
L 474.516875 283.167937 
" style="fill: none; stroke: #2ca02c; stroke-width: 1.5; stroke-linecap: square"/>
    </g>
    <g id="text_21">
     <!-- 1 RTX unit, 4A -->
     <g transform="translate(488.916875 289.467938) scale(0.18 -0.18)">
      <defs>
       <path id="DejaVuSans-52" d="M 2841 2188 
Q 3044 2119 3236 1894 
Q 3428 1669 3622 1275 
L 4263 0 
L 3584 0 
L 2988 1197 
Q 2756 1666 2539 1819 
Q 2322 1972 1947 1972 
L 1259 1972 
L 1259 0 
L 628 0 
L 628 4666 
L 2053 4666 
Q 2853 4666 3247 4331 
Q 3641 3997 3641 3322 
Q 3641 2881 3436 2590 
Q 3231 2300 2841 2188 
z
M 1259 4147 
L 1259 2491 
L 2053 2491 
Q 2509 2491 2742 2702 
Q 2975 2913 2975 3322 
Q 2975 3731 2742 3939 
Q 2509 4147 2053 4147 
L 1259 4147 
z
" transform="scale(0.015625)"/>
       <path id="DejaVuSans-58" d="M 403 4666 
L 1081 4666 
L 2241 2931 
L 3406 4666 
L 4084 4666 
L 2584 2425 
L 4184 0 
L 3506 0 
L 2194 1984 
L 872 0 
L 191 0 
L 1856 2491 
L 403 4666 
z
" transform="scale(0.015625)"/>
      </defs>
      <use xlink:href="#DejaVuSans-31"/>
      <use xlink:href="#DejaVuSans-20" x="63.623047"/>
      <use xlink:href="#DejaVuSans-52" x="95.410156"/>
      <use xlink:href="#DejaVuSans-54" x="157.642578"/>
      <use xlink:href="#DejaVuSans-58" x="218.726562"/>
      <use xlink:href="#DejaVuSans-20" x="287.232422"/>
      <use xlink:href="#DejaVuSans-75" x="319.019531"/>
      <use xlink:href="#DejaVuSans-6e" x="382.398438"/>
      <use xlink:href="#DejaVuSans-69" x="445.777344"/>
      <use xlink:href="#DejaVuSans-74" x="473.560547"/>
      <use xlink:href="#DejaVuSans-2c" x="512.769531"/>
      <use xlink:href="#DejaVuSans-20" x="544.556641"/>
      <use xlink:href="#DejaVuSans-34" x="576.34375"/>
      <use xlink:href="#DejaVuSans-41" x="639.966797"/>
     </g>
    </g>
    <g id="line2d_26">
     <path d="M 438.516875 309.588562 
L 456.516875 309.588562 
L 474.516875 309.588562 
" style="fill: none; stroke: #d62728; stroke-width: 1.5; stroke-linecap: square"/>
    </g>
    <g id="text_22">
     <!-- 2 RTX units, 4A -->
     <g transform="translate(488.916875 315.888562) scale(0.18 -0.18)">
      <use xlink:href="#DejaVuSans-32"/>
      <use xlink:href="#DejaVuSans-20" x="63.623047"/>
      <use xlink:href="#DejaVuSans-52" x="95.410156"/>
      <use xlink:href="#DejaVuSans-54" x="157.642578"/>
      <use xlink:href="#DejaVuSans-58" x="218.726562"/>
      <use xlink:href="#DejaVuSans-20" x="287.232422"/>
      <use xlink:href="#DejaVuSans-75" x="319.019531"/>
      <use xlink:href="#DejaVuSans-6e" x="382.398438"/>
      <use xlink:href="#DejaVuSans-69" x="445.777344"/>
      <use xlink:href="#DejaVuSans-74" x="473.560547"/>
      <use xlink:href="#DejaVuSans-73" x="512.769531"/>
      <use xlink:href="#DejaVuSans-2c" x="564.869141"/>
      <use xlink:href="#DejaVuSans-20" x="596.65625"/>
      <use xlink:href="#DejaVuSans-34" x="628.443359"/>
      <use xlink:href="#DejaVuSans-41" x="692.066406"/>
     </g>
    </g>
    <g id="line2d_27">
     <path d="M 438.516875 336.009187 
L 456.516875 336.009187 
L 474.516875 336.009187 
" style="fill: none; stroke: #9467bd; stroke-width: 1.5; stroke-linecap: square"/>
    </g>
    <g id="text_23">
     <!-- 4 RTX units, 4A -->
     <g transform="translate(488.916875 342.309188) scale(0.18 -0.18)">
      <use xlink:href="#DejaVuSans-34"/>
      <use xlink:href="#DejaVuSans-20" x="63.623047"/>
      <use xlink:href="#DejaVuSans-52" x="95.410156"/>
      <use xlink:href="#DejaVuSans-54" x="157.642578"/>
      <use xlink:href="#DejaVuSans-58" x="218.726562"/>
      <use xlink:href="#DejaVuSans-20" x="287.232422"/>
      <use xlink:href="#DejaVuSans-75" x="319.019531"/>
      <use xlink:href="#DejaVuSans-6e" x="382.398438"/>
      <use xlink:href="#DejaVuSans-69" x="445.777344"/>
      <use xlink:href="#DejaVuSans-74" x="473.560547"/>
      <use xlink:href="#DejaVuSans-73" x="512.769531"/>
      <use xlink:href="#DejaVuSans-2c" x="564.869141"/>
      <use xlink:href="#DejaVuSans-20" x="596.65625"/>
      <use xlink:href="#DejaVuSans-34" x="628.443359"/>
      <use xlink:href="#DejaVuSans-41" x="692.066406"/>
     </g>
    </g>
   </g>
  </g>
 </g>
 <defs>
  <clipPath id="paea5d9c12c">
   <rect x="64.24625" y="29.612625" width="669.6" height="332.64"/>
  </clipPath>
 </defs>
</svg>
