<?xml version="1.0" encoding="utf-8" standalone="no"?>
<!DOCTYPE svg PUBLIC "-//W3C//DTD SVG 1.1//EN"
  "http://www.w3.org/Graphics/SVG/1.1/DTD/svg11.dtd">
<svg xmlns:xlink="http://www.w3.org/1999/xlink" width="349.2pt" height="369.452625pt" viewBox="0 0 349.2 369.452625" xmlns="http://www.w3.org/2000/svg" version="1.1">
 <metadata>
  <rdf:RDF xmlns:dc="http://purl.org/dc/elements/1.1/" xmlns:cc="http://creativecommons.org/ns#" xmlns:rdf="http://www.w3.org/1999/02/22-rdf-syntax-ns#">
   <cc:Work>
    <dc:type rdf:resource="http://purl.org/dc/dcmitype/StillImage"/>
    <dc:date>2024-09-26T20:21:51.456274</dc:date>
    <dc:format>image/svg+xml</dc:format>
    <dc:creator>
     <cc:Agent>
      <dc:title>Matplotlib v3.8.0, https://matplotlib.org/</dc:title>
     </cc:Agent>
    </dc:creator>
   </cc:Work>
  </rdf:RDF>
 </metadata>
 <defs>
  <style type="text/css">*{stroke-linejoin: round; stroke-linecap: butt}</style>
 </defs>
 <g id="figure_1">
  <g id="patch_1">
   <path d="M 0 369.452625 
L 349.2 369.452625 
L 349.2 0 
L 0 0 
z
" style="fill: #ffffff"/>
  </g>
  <g id="axes_1">
   <g id="LineCollection_1">
    <path d="M 231.124639 70.421418 
L 259.215514 58.47808 
" clip-path="url(#p0f783d9ad8)" style="fill: none; stroke: #000000"/>
    <path d="M 231.124639 70.421418 
L 283.740841 84.413239 
" clip-path="url(#p0f783d9ad8)" style="fill: none; stroke: #000000"/>
    <path d="M 231.124639 70.421418 
L 207.784781 180.249275 
" clip-path="url(#p0f783d9ad8)" style="fill: none; stroke: #000000"/>
    <path d="M 231.124639 70.421418 
L 212.281409 113.981275 
" clip-path="url(#p0f783d9ad8)" style="fill: none; stroke: #000000"/>
    <path d="M 231.124639 70.421418 
L 240.412261 154.804328 
" clip-path="url(#p0f783d9ad8)" style="fill: none; stroke: #000000"/>
    <path d="M 231.124639 70.421418 
L 312.947107 137.143199 
" clip-path="url(#p0f783d9ad8)" style="fill: none; stroke: #000000"/>
    <path d="M 231.124639 70.421418 
L 267.491495 201.614112 
" clip-path="url(#p0f783d9ad8)" style="fill: none; stroke: #000000"/>
    <path d="M 231.124639 70.421418 
L 259.493127 116.190577 
" clip-path="url(#p0f783d9ad8)" style="fill: none; stroke: #000000"/>
    <path d="M 231.124639 70.421418 
L 270.885023 135.784456 
" clip-path="url(#p0f783d9ad8)" style="fill: none; stroke: #000000"/>
    <path d="M 231.124639 70.421418 
L 129.131678 209.753863 
" clip-path="url(#p0f783d9ad8)" style="fill: none; stroke: #000000"/>
    <path d="M 259.215514 58.47808 
L 283.740841 84.413239 
" clip-path="url(#p0f783d9ad8)" style="fill: none; stroke: #000000"/>
    <path d="M 259.215514 58.47808 
L 207.784781 180.249275 
" clip-path="url(#p0f783d9ad8)" style="fill: none; stroke: #000000"/>
    <path d="M 259.215514 58.47808 
L 212.281409 113.981275 
" clip-path="url(#p0f783d9ad8)" style="fill: none; stroke: #000000"/>
    <path d="M 259.215514 58.47808 
L 240.412261 154.804328 
" clip-path="url(#p0f783d9ad8)" style="fill: none; stroke: #000000"/>
    <path d="M 259.215514 58.47808 
L 312.947107 137.143199 
" clip-path="url(#p0f783d9ad8)" style="fill: none; stroke: #000000"/>
    <path d="M 259.215514 58.47808 
L 267.491495 201.614112 
" clip-path="url(#p0f783d9ad8)" style="fill: none; stroke: #000000"/>
    <path d="M 259.215514 58.47808 
L 259.493127 116.190577 
" clip-path="url(#p0f783d9ad8)" style="fill: none; stroke: #000000"/>
    <path d="M 259.215514 58.47808 
L 270.885023 135.784456 
" clip-path="url(#p0f783d9ad8)" style="fill: none; stroke: #000000"/>
    <path d="M 259.215514 58.47808 
L 129.131678 209.753863 
" clip-path="url(#p0f783d9ad8)" style="fill: none; stroke: #000000"/>
    <path d="M 283.740841 84.413239 
L 207.784781 180.249275 
" clip-path="url(#p0f783d9ad8)" style="fill: none; stroke: #000000"/>
    <path d="M 283.740841 84.413239 
L 212.281409 113.981275 
" clip-path="url(#p0f783d9ad8)" style="fill: none; stroke: #000000"/>
    <path d="M 283.740841 84.413239 
L 240.412261 154.804328 
" clip-path="url(#p0f783d9ad8)" style="fill: none; stroke: #000000"/>
    <path d="M 283.740841 84.413239 
L 312.947107 137.143199 
" clip-path="url(#p0f783d9ad8)" style="fill: none; stroke: #000000"/>
    <path d="M 283.740841 84.413239 
L 267.491495 201.614112 
" clip-path="url(#p0f783d9ad8)" style="fill: none; stroke: #000000"/>
    <path d="M 283.740841 84.413239 
L 259.493127 116.190577 
" clip-path="url(#p0f783d9ad8)" style="fill: none; stroke: #000000"/>
    <path d="M 283.740841 84.413239 
L 270.885023 135.784456 
" clip-path="url(#p0f783d9ad8)" style="fill: none; stroke: #000000"/>
    <path d="M 283.740841 84.413239 
L 103.418059 189.390734 
" clip-path="url(#p0f783d9ad8)" style="fill: none; stroke: #000000"/>
    <path d="M 207.784781 180.249275 
L 212.281409 113.981275 
" clip-path="url(#p0f783d9ad8)" style="fill: none; stroke: #000000"/>
    <path d="M 207.784781 180.249275 
L 240.412261 154.804328 
" clip-path="url(#p0f783d9ad8)" style="fill: none; stroke: #000000"/>
    <path d="M 207.784781 180.249275 
L 312.947107 137.143199 
" clip-path="url(#p0f783d9ad8)" style="fill: none; stroke: #000000"/>
    <path d="M 207.784781 180.249275 
L 267.491495 201.614112 
" clip-path="url(#p0f783d9ad8)" style="fill: none; stroke: #000000"/>
    <path d="M 207.784781 180.249275 
L 259.493127 116.190577 
" clip-path="url(#p0f783d9ad8)" style="fill: none; stroke: #000000"/>
    <path d="M 207.784781 180.249275 
L 270.885023 135.784456 
" clip-path="url(#p0f783d9ad8)" style="fill: none; stroke: #000000"/>
    <path d="M 207.784781 180.249275 
L 102.77851 252.65029 
" clip-path="url(#p0f783d9ad8)" style="fill: none; stroke: #000000"/>
    <path d="M 212.281409 113.981275 
L 240.412261 154.804328 
" clip-path="url(#p0f783d9ad8)" style="fill: none; stroke: #000000"/>
    <path d="M 212.281409 113.981275 
L 312.947107 137.143199 
" clip-path="url(#p0f783d9ad8)" style="fill: none; stroke: #000000"/>
    <path d="M 212.281409 113.981275 
L 267.491495 201.614112 
" clip-path="url(#p0f783d9ad8)" style="fill: none; stroke: #000000"/>
    <path d="M 212.281409 113.981275 
L 259.493127 116.190577 
" clip-path="url(#p0f783d9ad8)" style="fill: none; stroke: #000000"/>
    <path d="M 212.281409 113.981275 
L 270.885023 135.784456 
" clip-path="url(#p0f783d9ad8)" style="fill: none; stroke: #000000"/>
    <path d="M 240.412261 154.804328 
L 312.947107 137.143199 
" clip-path="url(#p0f783d9ad8)" style="fill: none; stroke: #000000"/>
    <path d="M 240.412261 154.804328 
L 267.491495 201.614112 
" clip-path="url(#p0f783d9ad8)" style="fill: none; stroke: #000000"/>
    <path d="M 240.412261 154.804328 
L 259.493127 116.190577 
" clip-path="url(#p0f783d9ad8)" style="fill: none; stroke: #000000"/>
    <path d="M 240.412261 154.804328 
L 270.885023 135.784456 
" clip-path="url(#p0f783d9ad8)" style="fill: none; stroke: #000000"/>
    <path d="M 312.947107 137.143199 
L 267.491495 201.614112 
" clip-path="url(#p0f783d9ad8)" style="fill: none; stroke: #000000"/>
    <path d="M 312.947107 137.143199 
L 259.493127 116.190577 
" clip-path="url(#p0f783d9ad8)" style="fill: none; stroke: #000000"/>
    <path d="M 312.947107 137.143199 
L 270.885023 135.784456 
" clip-path="url(#p0f783d9ad8)" style="fill: none; stroke: #000000"/>
    <path d="M 267.491495 201.614112 
L 259.493127 116.190577 
" clip-path="url(#p0f783d9ad8)" style="fill: none; stroke: #000000"/>
    <path d="M 267.491495 201.614112 
L 270.885023 135.784456 
" clip-path="url(#p0f783d9ad8)" style="fill: none; stroke: #000000"/>
    <path d="M 267.491495 201.614112 
L 115.18706 321.869076 
" clip-path="url(#p0f783d9ad8)" style="fill: none; stroke: #000000"/>
    <path d="M 259.493127 116.190577 
L 270.885023 135.784456 
" clip-path="url(#p0f783d9ad8)" style="fill: none; stroke: #000000"/>
    <path d="M 56.127524 210.819547 
L 47.128712 299.300096 
" clip-path="url(#p0f783d9ad8)" style="fill: none; stroke: #000000"/>
    <path d="M 56.127524 210.819547 
L 36.252893 255.950918 
" clip-path="url(#p0f783d9ad8)" style="fill: none; stroke: #000000"/>
    <path d="M 56.127524 210.819547 
L 115.18706 321.869076 
" clip-path="url(#p0f783d9ad8)" style="fill: none; stroke: #000000"/>
    <path d="M 56.127524 210.819547 
L 69.307074 333.38717 
" clip-path="url(#p0f783d9ad8)" style="fill: none; stroke: #000000"/>
    <path d="M 56.127524 210.819547 
L 130.030642 291.239427 
" clip-path="url(#p0f783d9ad8)" style="fill: none; stroke: #000000"/>
    <path d="M 56.127524 210.819547 
L 129.131678 209.753863 
" clip-path="url(#p0f783d9ad8)" style="fill: none; stroke: #000000"/>
    <path d="M 56.127524 210.819547 
L 103.418059 189.390734 
" clip-path="url(#p0f783d9ad8)" style="fill: none; stroke: #000000"/>
    <path d="M 56.127524 210.819547 
L 102.77851 252.65029 
" clip-path="url(#p0f783d9ad8)" style="fill: none; stroke: #000000"/>
    <path d="M 56.127524 210.819547 
L 80.233846 267.161106 
" clip-path="url(#p0f783d9ad8)" style="fill: none; stroke: #000000"/>
    <path d="M 47.128712 299.300096 
L 36.252893 255.950918 
" clip-path="url(#p0f783d9ad8)" style="fill: none; stroke: #000000"/>
    <path d="M 47.128712 299.300096 
L 115.18706 321.869076 
" clip-path="url(#p0f783d9ad8)" style="fill: none; stroke: #000000"/>
    <path d="M 47.128712 299.300096 
L 69.307074 333.38717 
" clip-path="url(#p0f783d9ad8)" style="fill: none; stroke: #000000"/>
    <path d="M 47.128712 299.300096 
L 130.030642 291.239427 
" clip-path="url(#p0f783d9ad8)" style="fill: none; stroke: #000000"/>
    <path d="M 47.128712 299.300096 
L 129.131678 209.753863 
" clip-path="url(#p0f783d9ad8)" style="fill: none; stroke: #000000"/>
    <path d="M 47.128712 299.300096 
L 103.418059 189.390734 
" clip-path="url(#p0f783d9ad8)" style="fill: none; stroke: #000000"/>
    <path d="M 47.128712 299.300096 
L 102.77851 252.65029 
" clip-path="url(#p0f783d9ad8)" style="fill: none; stroke: #000000"/>
    <path d="M 47.128712 299.300096 
L 80.233846 267.161106 
" clip-path="url(#p0f783d9ad8)" style="fill: none; stroke: #000000"/>
    <path d="M 36.252893 255.950918 
L 115.18706 321.869076 
" clip-path="url(#p0f783d9ad8)" style="fill: none; stroke: #000000"/>
    <path d="M 36.252893 255.950918 
L 69.307074 333.38717 
" clip-path="url(#p0f783d9ad8)" style="fill: none; stroke: #000000"/>
    <path d="M 36.252893 255.950918 
L 130.030642 291.239427 
" clip-path="url(#p0f783d9ad8)" style="fill: none; stroke: #000000"/>
    <path d="M 36.252893 255.950918 
L 129.131678 209.753863 
" clip-path="url(#p0f783d9ad8)" style="fill: none; stroke: #000000"/>
    <path d="M 36.252893 255.950918 
L 103.418059 189.390734 
" clip-path="url(#p0f783d9ad8)" style="fill: none; stroke: #000000"/>
    <path d="M 36.252893 255.950918 
L 102.77851 252.65029 
" clip-path="url(#p0f783d9ad8)" style="fill: none; stroke: #000000"/>
    <path d="M 36.252893 255.950918 
L 80.233846 267.161106 
" clip-path="url(#p0f783d9ad8)" style="fill: none; stroke: #000000"/>
    <path d="M 115.18706 321.869076 
L 69.307074 333.38717 
" clip-path="url(#p0f783d9ad8)" style="fill: none; stroke: #000000"/>
    <path d="M 115.18706 321.869076 
L 130.030642 291.239427 
" clip-path="url(#p0f783d9ad8)" style="fill: none; stroke: #000000"/>
    <path d="M 115.18706 321.869076 
L 129.131678 209.753863 
" clip-path="url(#p0f783d9ad8)" style="fill: none; stroke: #000000"/>
    <path d="M 115.18706 321.869076 
L 103.418059 189.390734 
" clip-path="url(#p0f783d9ad8)" style="fill: none; stroke: #000000"/>
    <path d="M 115.18706 321.869076 
L 102.77851 252.65029 
" clip-path="url(#p0f783d9ad8)" style="fill: none; stroke: #000000"/>
    <path d="M 115.18706 321.869076 
L 80.233846 267.161106 
" clip-path="url(#p0f783d9ad8)" style="fill: none; stroke: #000000"/>
    <path d="M 69.307074 333.38717 
L 130.030642 291.239427 
" clip-path="url(#p0f783d9ad8)" style="fill: none; stroke: #000000"/>
    <path d="M 69.307074 333.38717 
L 129.131678 209.753863 
" clip-path="url(#p0f783d9ad8)" style="fill: none; stroke: #000000"/>
    <path d="M 69.307074 333.38717 
L 103.418059 189.390734 
" clip-path="url(#p0f783d9ad8)" style="fill: none; stroke: #000000"/>
    <path d="M 69.307074 333.38717 
L 102.77851 252.65029 
" clip-path="url(#p0f783d9ad8)" style="fill: none; stroke: #000000"/>
    <path d="M 69.307074 333.38717 
L 80.233846 267.161106 
" clip-path="url(#p0f783d9ad8)" style="fill: none; stroke: #000000"/>
    <path d="M 130.030642 291.239427 
L 129.131678 209.753863 
" clip-path="url(#p0f783d9ad8)" style="fill: none; stroke: #000000"/>
    <path d="M 130.030642 291.239427 
L 103.418059 189.390734 
" clip-path="url(#p0f783d9ad8)" style="fill: none; stroke: #000000"/>
    <path d="M 130.030642 291.239427 
L 102.77851 252.65029 
" clip-path="url(#p0f783d9ad8)" style="fill: none; stroke: #000000"/>
    <path d="M 130.030642 291.239427 
L 80.233846 267.161106 
" clip-path="url(#p0f783d9ad8)" style="fill: none; stroke: #000000"/>
    <path d="M 129.131678 209.753863 
L 103.418059 189.390734 
" clip-path="url(#p0f783d9ad8)" style="fill: none; stroke: #000000"/>
    <path d="M 129.131678 209.753863 
L 102.77851 252.65029 
" clip-path="url(#p0f783d9ad8)" style="fill: none; stroke: #000000"/>
    <path d="M 129.131678 209.753863 
L 80.233846 267.161106 
" clip-path="url(#p0f783d9ad8)" style="fill: none; stroke: #000000"/>
    <path d="M 103.418059 189.390734 
L 102.77851 252.65029 
" clip-path="url(#p0f783d9ad8)" style="fill: none; stroke: #000000"/>
    <path d="M 103.418059 189.390734 
L 80.233846 267.161106 
" clip-path="url(#p0f783d9ad8)" style="fill: none; stroke: #000000"/>
    <path d="M 102.77851 252.65029 
L 80.233846 267.161106 
" clip-path="url(#p0f783d9ad8)" style="fill: none; stroke: #000000"/>
   </g>
   <g id="PathCollection_1">
    <defs>
     <path id="m6015c7cdb5" d="M 0 8.660254 
C 2.296726 8.660254 4.499694 7.747755 6.123724 6.123724 
C 7.747755 4.499694 8.660254 2.296726 8.660254 0 
C 8.660254 -2.296726 7.747755 -4.499694 6.123724 -6.123724 
C 4.499694 -7.747755 2.296726 -8.660254 0 -8.660254 
C -2.296726 -8.660254 -4.499694 -7.747755 -6.123724 -6.123724 
C -7.747755 -4.499694 -8.660254 -2.296726 -8.660254 0 
C -8.660254 2.296726 -7.747755 4.499694 -6.123724 6.123724 
C -4.499694 7.747755 -2.296726 8.660254 0 8.660254 
z
" style="stroke: #000000"/>
    </defs>
    <g clip-path="url(#p0f783d9ad8)">
     <use xlink:href="#m6015c7cdb5" x="231.124639" y="70.421418" style="stroke: #000000"/>
     <use xlink:href="#m6015c7cdb5" x="259.215514" y="58.47808" style="stroke: #000000"/>
     <use xlink:href="#m6015c7cdb5" x="283.740841" y="84.413239" style="stroke: #000000"/>
     <use xlink:href="#m6015c7cdb5" x="207.784781" y="180.249275" style="stroke: #000000"/>
     <use xlink:href="#m6015c7cdb5" x="212.281409" y="113.981275" style="stroke: #000000"/>
     <use xlink:href="#m6015c7cdb5" x="240.412261" y="154.804328" style="stroke: #000000"/>
     <use xlink:href="#m6015c7cdb5" x="312.947107" y="137.143199" style="stroke: #000000"/>
     <use xlink:href="#m6015c7cdb5" x="267.491495" y="201.614112" style="stroke: #000000"/>
     <use xlink:href="#m6015c7cdb5" x="259.493127" y="116.190577" style="stroke: #000000"/>
     <use xlink:href="#m6015c7cdb5" x="270.885023" y="135.784456" style="stroke: #000000"/>
     <use xlink:href="#m6015c7cdb5" x="56.127524" y="210.819547" style="stroke: #000000"/>
     <use xlink:href="#m6015c7cdb5" x="47.128712" y="299.300096" style="stroke: #000000"/>
     <use xlink:href="#m6015c7cdb5" x="36.252893" y="255.950918" style="stroke: #000000"/>
     <use xlink:href="#m6015c7cdb5" x="115.18706" y="321.869076" style="stroke: #000000"/>
     <use xlink:href="#m6015c7cdb5" x="69.307074" y="333.38717" style="stroke: #000000"/>
     <use xlink:href="#m6015c7cdb5" x="130.030642" y="291.239427" style="stroke: #000000"/>
     <use xlink:href="#m6015c7cdb5" x="129.131678" y="209.753863" style="stroke: #000000"/>
     <use xlink:href="#m6015c7cdb5" x="103.418059" y="189.390734" style="stroke: #000000"/>
     <use xlink:href="#m6015c7cdb5" x="102.77851" y="252.65029" style="stroke: #000000"/>
     <use xlink:href="#m6015c7cdb5" x="80.233846" y="267.161106" style="stroke: #000000"/>
    </g>
   </g>
   <g id="text_1">
    <!-- PING-Assembly -->
    <g transform="translate(92.746125 23.612625) scale(0.216 -0.216)">
     <defs>
      <path id="DejaVuSans-50" d="M 1259 4147 
L 1259 2394 
L 2053 2394 
Q 2494 2394 2734 2622 
Q 2975 2850 2975 3272 
Q 2975 3691 2734 3919 
Q 2494 4147 2053 4147 
L 1259 4147 
z
M 628 4666 
L 2053 4666 
Q 2838 4666 3239 4311 
Q 3641 3956 3641 3272 
Q 3641 2581 3239 2228 
Q 2838 1875 2053 1875 
L 1259 1875 
L 1259 0 
L 628 0 
L 628 4666 
z
" transform="scale(0.015625)"/>
      <path id="DejaVuSans-49" d="M 628 4666 
L 1259 4666 
L 1259 0 
L 628 0 
L 628 4666 
z
" transform="scale(0.015625)"/>
      <path id="DejaVuSans-4e" d="M 628 4666 
L 1478 4666 
L 3547 763 
L 3547 4666 
L 4159 4666 
L 4159 0 
L 3309 0 
L 1241 3903 
L 1241 0 
L 628 0 
L 628 4666 
z
" transform="scale(0.015625)"/>
      <path id="DejaVuSans-47" d="M 3809 666 
L 3809 1919 
L 2778 1919 
L 2778 2438 
L 4434 2438 
L 4434 434 
Q 4069 175 3628 42 
Q 3188 -91 2688 -91 
Q 1594 -91 976 548 
Q 359 1188 359 2328 
Q 359 3472 976 4111 
Q 1594 4750 2688 4750 
Q 3144 4750 3555 4637 
Q 3966 4525 4313 4306 
L 4313 3634 
Q 3963 3931 3569 4081 
Q 3175 4231 2741 4231 
Q 1884 4231 1454 3753 
Q 1025 3275 1025 2328 
Q 1025 1384 1454 906 
Q 1884 428 2741 428 
Q 3075 428 3337 486 
Q 3600 544 3809 666 
z
" transform="scale(0.015625)"/>
      <path id="DejaVuSans-2d" d="M 313 2009 
L 1997 2009 
L 1997 1497 
L 313 1497 
L 313 2009 
z
" transform="scale(0.015625)"/>
      <path id="DejaVuSans-41" d="M 2188 4044 
L 1331 1722 
L 3047 1722 
L 2188 4044 
z
M 1831 4666 
L 2547 4666 
L 4325 0 
L 3669 0 
L 3244 1197 
L 1141 1197 
L 716 0 
L 50 0 
L 1831 4666 
z
" transform="scale(0.015625)"/>
      <path id="DejaVuSans-73" d="M 2834 3397 
L 2834 2853 
Q 2591 2978 2328 3040 
Q 2066 3103 1784 3103 
Q 1356 3103 1142 2972 
Q 928 2841 928 2578 
Q 928 2378 1081 2264 
Q 1234 2150 1697 2047 
L 1894 2003 
Q 2506 1872 2764 1633 
Q 3022 1394 3022 966 
Q 3022 478 2636 193 
Q 2250 -91 1575 -91 
Q 1294 -91 989 -36 
Q 684 19 347 128 
L 347 722 
Q 666 556 975 473 
Q 1284 391 1588 391 
Q 1994 391 2212 530 
Q 2431 669 2431 922 
Q 2431 1156 2273 1281 
Q 2116 1406 1581 1522 
L 1381 1569 
Q 847 1681 609 1914 
Q 372 2147 372 2553 
Q 372 3047 722 3315 
Q 1072 3584 1716 3584 
Q 2034 3584 2315 3537 
Q 2597 3491 2834 3397 
z
" transform="scale(0.015625)"/>
      <path id="DejaVuSans-65" d="M 3597 1894 
L 3597 1613 
L 953 1613 
Q 991 1019 1311 708 
Q 1631 397 2203 397 
Q 2534 397 2845 478 
Q 3156 559 3463 722 
L 3463 178 
Q 3153 47 2828 -22 
Q 2503 -91 2169 -91 
Q 1331 -91 842 396 
Q 353 884 353 1716 
Q 353 2575 817 3079 
Q 1281 3584 2069 3584 
Q 2775 3584 3186 3129 
Q 3597 2675 3597 1894 
z
M 3022 2063 
Q 3016 2534 2758 2815 
Q 2500 3097 2075 3097 
Q 1594 3097 1305 2825 
Q 1016 2553 972 2059 
L 3022 2063 
z
" transform="scale(0.015625)"/>
      <path id="DejaVuSans-6d" d="M 3328 2828 
Q 3544 3216 3844 3400 
Q 4144 3584 4550 3584 
Q 5097 3584 5394 3201 
Q 5691 2819 5691 2113 
L 5691 0 
L 5113 0 
L 5113 2094 
Q 5113 2597 4934 2840 
Q 4756 3084 4391 3084 
Q 3944 3084 3684 2787 
Q 3425 2491 3425 1978 
L 3425 0 
L 2847 0 
L 2847 2094 
Q 2847 2600 2669 2842 
Q 2491 3084 2119 3084 
Q 1678 3084 1418 2786 
Q 1159 2488 1159 1978 
L 1159 0 
L 581 0 
L 581 3500 
L 1159 3500 
L 1159 2956 
Q 1356 3278 1631 3431 
Q 1906 3584 2284 3584 
Q 2666 3584 2933 3390 
Q 3200 3197 3328 2828 
z
" transform="scale(0.015625)"/>
      <path id="DejaVuSans-62" d="M 3116 1747 
Q 3116 2381 2855 2742 
Q 2594 3103 2138 3103 
Q 1681 3103 1420 2742 
Q 1159 2381 1159 1747 
Q 1159 1113 1420 752 
Q 1681 391 2138 391 
Q 2594 391 2855 752 
Q 3116 1113 3116 1747 
z
M 1159 2969 
Q 1341 3281 1617 3432 
Q 1894 3584 2278 3584 
Q 2916 3584 3314 3078 
Q 3713 2572 3713 1747 
Q 3713 922 3314 415 
Q 2916 -91 2278 -91 
Q 1894 -91 1617 61 
Q 1341 213 1159 525 
L 1159 0 
L 581 0 
L 581 4863 
L 1159 4863 
L 1159 2969 
z
" transform="scale(0.015625)"/>
      <path id="DejaVuSans-6c" d="M 603 4863 
L 1178 4863 
L 1178 0 
L 603 0 
L 603 4863 
z
" transform="scale(0.015625)"/>
      <path id="DejaVuSans-79" d="M 2059 -325 
Q 1816 -950 1584 -1140 
Q 1353 -1331 966 -1331 
L 506 -1331 
L 506 -850 
L 844 -850 
Q 1081 -850 1212 -737 
Q 1344 -625 1503 -206 
L 1606 56 
L 191 3500 
L 800 3500 
L 1894 763 
L 2988 3500 
L 3597 3500 
L 2059 -325 
z
" transform="scale(0.015625)"/>
     </defs>
     <use xlink:href="#DejaVuSans-50"/>
     <use xlink:href="#DejaVuSans-49" x="60.302734"/>
     <use xlink:href="#DejaVuSans-4e" x="89.794922"/>
     <use xlink:href="#DejaVuSans-47" x="164.599609"/>
     <use xlink:href="#DejaVuSans-2d" x="242.089844"/>
     <use xlink:href="#DejaVuSans-41" x="275.923828"/>
     <use xlink:href="#DejaVuSans-73" x="344.332031"/>
     <use xlink:href="#DejaVuSans-73" x="396.431641"/>
     <use xlink:href="#DejaVuSans-65" x="448.53125"/>
     <use xlink:href="#DejaVuSans-6d" x="510.054688"/>
     <use xlink:href="#DejaVuSans-62" x="607.466797"/>
     <use xlink:href="#DejaVuSans-6c" x="670.943359"/>
     <use xlink:href="#DejaVuSans-79" x="698.726562"/>
    </g>
   </g>
  </g>
 </g>
 <defs>
  <clipPath id="p0f783d9ad8">
   <rect x="7.2" y="29.612625" width="334.8" height="332.64"/>
  </clipPath>
 </defs>
</svg>
