<?xml version="1.0" encoding="utf-8" standalone="no"?>
<!DOCTYPE svg PUBLIC "-//W3C//DTD SVG 1.1//EN"
  "http://www.w3.org/Graphics/SVG/1.1/DTD/svg11.dtd">
<svg xmlns:xlink="http://www.w3.org/1999/xlink" width="181.8pt" height="203.132625pt" viewBox="0 0 181.8 203.132625" xmlns="http://www.w3.org/2000/svg" version="1.1">
 <metadata>
  <rdf:RDF xmlns:dc="http://purl.org/dc/elements/1.1/" xmlns:cc="http://creativecommons.org/ns#" xmlns:rdf="http://www.w3.org/1999/02/22-rdf-syntax-ns#">
   <cc:Work>
    <dc:type rdf:resource="http://purl.org/dc/dcmitype/StillImage"/>
    <dc:date>2024-09-26T20:35:13.203574</dc:date>
    <dc:format>image/svg+xml</dc:format>
    <dc:creator>
     <cc:Agent>
      <dc:title>Matplotlib v3.8.0, https://matplotlib.org/</dc:title>
     </cc:Agent>
    </dc:creator>
   </cc:Work>
  </rdf:RDF>
 </metadata>
 <defs>
  <style type="text/css">*{stroke-linejoin: round; stroke-linecap: butt}</style>
 </defs>
 <g id="figure_1">
  <g id="patch_1">
   <path d="M 0 203.132625 
L 181.8 203.132625 
L 181.8 0 
L 0 0 
z
" style="fill: #ffffff"/>
  </g>
  <g id="axes_1">
   <g id="LineCollection_1">
    <path d="M 160.073554 112.772625 
L 156.687961 91.534729 
" clip-path="url(#p870a927ed0)" style="fill: none; stroke: #000000"/>
    <path d="M 146.862581 72.375748 
L 131.559194 57.171093 
" clip-path="url(#p870a927ed0)" style="fill: none; stroke: #000000"/>
    <path d="M 112.275802 47.409103 
L 90.899997 44.045352 
" clip-path="url(#p870a927ed0)" style="fill: none; stroke: #000000"/>
    <path d="M 69.524194 47.409107 
L 50.24081 57.171093 
" clip-path="url(#p870a927ed0)" style="fill: none; stroke: #000000"/>
    <path d="M 34.937415 72.375752 
L 25.112043 91.534727 
" clip-path="url(#p870a927ed0)" style="fill: none; stroke: #000000"/>
    <path d="M 21.726446 112.772631 
L 25.112039 134.010519 
" clip-path="url(#p870a927ed0)" style="fill: none; stroke: #000000"/>
    <path d="M 34.937423 153.16951 
L 50.240818 168.374165 
" clip-path="url(#p870a927ed0)" style="fill: none; stroke: #000000"/>
    <path d="M 69.52419 178.136143 
L 90.900001 181.499898 
" clip-path="url(#p870a927ed0)" style="fill: none; stroke: #000000"/>
    <path d="M 112.275812 178.136143 
L 131.559182 168.374165 
" clip-path="url(#p870a927ed0)" style="fill: none; stroke: #000000"/>
    <path d="M 146.862577 153.169506 
L 156.687961 134.010517 
" clip-path="url(#p870a927ed0)" style="fill: none; stroke: #000000"/>
   </g>
   <g id="PathCollection_1">
    <defs>
     <path id="mcd7ad5827e" d="M 0 3.162278 
C 0.838646 3.162278 1.643056 2.82908 2.236068 2.236068 
C 2.82908 1.643056 3.162278 0.838646 3.162278 0 
C 3.162278 -0.838646 2.82908 -1.643056 2.236068 -2.236068 
C 1.643056 -2.82908 0.838646 -3.162278 0 -3.162278 
C -0.838646 -3.162278 -1.643056 -2.82908 -2.236068 -2.236068 
C -2.82908 -1.643056 -3.162278 -0.838646 -3.162278 0 
C -3.162278 0.838646 -2.82908 1.643056 -2.236068 2.236068 
C -1.643056 2.82908 -0.838646 3.162278 0 3.162278 
z
" style="stroke: #000000"/>
    </defs>
    <g clip-path="url(#p870a927ed0)">
     <use xlink:href="#mcd7ad5827e" x="160.073554" y="112.772625" style="stroke: #000000"/>
     <use xlink:href="#mcd7ad5827e" x="156.687961" y="91.534729" style="stroke: #000000"/>
     <use xlink:href="#mcd7ad5827e" x="146.862581" y="72.375748" style="stroke: #000000"/>
     <use xlink:href="#mcd7ad5827e" x="131.559194" y="57.171093" style="stroke: #000000"/>
     <use xlink:href="#mcd7ad5827e" x="112.275802" y="47.409103" style="stroke: #000000"/>
     <use xlink:href="#mcd7ad5827e" x="90.899997" y="44.045352" style="stroke: #000000"/>
     <use xlink:href="#mcd7ad5827e" x="69.524194" y="47.409107" style="stroke: #000000"/>
     <use xlink:href="#mcd7ad5827e" x="50.24081" y="57.171093" style="stroke: #000000"/>
     <use xlink:href="#mcd7ad5827e" x="34.937415" y="72.375752" style="stroke: #000000"/>
     <use xlink:href="#mcd7ad5827e" x="25.112043" y="91.534727" style="stroke: #000000"/>
     <use xlink:href="#mcd7ad5827e" x="21.726446" y="112.772631" style="stroke: #000000"/>
     <use xlink:href="#mcd7ad5827e" x="25.112039" y="134.010519" style="stroke: #000000"/>
     <use xlink:href="#mcd7ad5827e" x="34.937423" y="153.16951" style="stroke: #000000"/>
     <use xlink:href="#mcd7ad5827e" x="50.240818" y="168.374165" style="stroke: #000000"/>
     <use xlink:href="#mcd7ad5827e" x="69.52419" y="178.136143" style="stroke: #000000"/>
     <use xlink:href="#mcd7ad5827e" x="90.900001" y="181.499898" style="stroke: #000000"/>
     <use xlink:href="#mcd7ad5827e" x="112.275812" y="178.136143" style="stroke: #000000"/>
     <use xlink:href="#mcd7ad5827e" x="131.559182" y="168.374165" style="stroke: #000000"/>
     <use xlink:href="#mcd7ad5827e" x="146.862577" y="153.169506" style="stroke: #000000"/>
     <use xlink:href="#mcd7ad5827e" x="156.687961" y="134.010517" style="stroke: #000000"/>
    </g>
   </g>
   <g id="text_1">
    <!-- N-Pairs -->
    <g transform="translate(53.213063 23.612625) scale(0.216 -0.216)">
     <defs>
      <path id="DejaVuSans-4e" d="M 628 4666 
L 1478 4666 
L 3547 763 
L 3547 4666 
L 4159 4666 
L 4159 0 
L 3309 0 
L 1241 3903 
L 1241 0 
L 628 0 
L 628 4666 
z
" transform="scale(0.015625)"/>
      <path id="DejaVuSans-2d" d="M 313 2009 
L 1997 2009 
L 1997 1497 
L 313 1497 
L 313 2009 
z
" transform="scale(0.015625)"/>
      <path id="DejaVuSans-50" d="M 1259 4147 
L 1259 2394 
L 2053 2394 
Q 2494 2394 2734 2622 
Q 2975 2850 2975 3272 
Q 2975 3691 2734 3919 
Q 2494 4147 2053 4147 
L 1259 4147 
z
M 628 4666 
L 2053 4666 
Q 2838 4666 3239 4311 
Q 3641 3956 3641 3272 
Q 3641 2581 3239 2228 
Q 2838 1875 2053 1875 
L 1259 1875 
L 1259 0 
L 628 0 
L 628 4666 
z
" transform="scale(0.015625)"/>
      <path id="DejaVuSans-61" d="M 2194 1759 
Q 1497 1759 1228 1600 
Q 959 1441 959 1056 
Q 959 750 1161 570 
Q 1363 391 1709 391 
Q 2188 391 2477 730 
Q 2766 1069 2766 1631 
L 2766 1759 
L 2194 1759 
z
M 3341 1997 
L 3341 0 
L 2766 0 
L 2766 531 
Q 2569 213 2275 61 
Q 1981 -91 1556 -91 
Q 1019 -91 701 211 
Q 384 513 384 1019 
Q 384 1609 779 1909 
Q 1175 2209 1959 2209 
L 2766 2209 
L 2766 2266 
Q 2766 2663 2505 2880 
Q 2244 3097 1772 3097 
Q 1472 3097 1187 3025 
Q 903 2953 641 2809 
L 641 3341 
Q 956 3463 1253 3523 
Q 1550 3584 1831 3584 
Q 2591 3584 2966 3190 
Q 3341 2797 3341 1997 
z
" transform="scale(0.015625)"/>
      <path id="DejaVuSans-69" d="M 603 3500 
L 1178 3500 
L 1178 0 
L 603 0 
L 603 3500 
z
M 603 4863 
L 1178 4863 
L 1178 4134 
L 603 4134 
L 603 4863 
z
" transform="scale(0.015625)"/>
      <path id="DejaVuSans-72" d="M 2631 2963 
Q 2534 3019 2420 3045 
Q 2306 3072 2169 3072 
Q 1681 3072 1420 2755 
Q 1159 2438 1159 1844 
L 1159 0 
L 581 0 
L 581 3500 
L 1159 3500 
L 1159 2956 
Q 1341 3275 1631 3429 
Q 1922 3584 2338 3584 
Q 2397 3584 2469 3576 
Q 2541 3569 2628 3553 
L 2631 2963 
z
" transform="scale(0.015625)"/>
      <path id="DejaVuSans-73" d="M 2834 3397 
L 2834 2853 
Q 2591 2978 2328 3040 
Q 2066 3103 1784 3103 
Q 1356 3103 1142 2972 
Q 928 2841 928 2578 
Q 928 2378 1081 2264 
Q 1234 2150 1697 2047 
L 1894 2003 
Q 2506 1872 2764 1633 
Q 3022 1394 3022 966 
Q 3022 478 2636 193 
Q 2250 -91 1575 -91 
Q 1294 -91 989 -36 
Q 684 19 347 128 
L 347 722 
Q 666 556 975 473 
Q 1284 391 1588 391 
Q 1994 391 2212 530 
Q 2431 669 2431 922 
Q 2431 1156 2273 1281 
Q 2116 1406 1581 1522 
L 1381 1569 
Q 847 1681 609 1914 
Q 372 2147 372 2553 
Q 372 3047 722 3315 
Q 1072 3584 1716 3584 
Q 2034 3584 2315 3537 
Q 2597 3491 2834 3397 
z
" transform="scale(0.015625)"/>
     </defs>
     <use xlink:href="#DejaVuSans-4e"/>
     <use xlink:href="#DejaVuSans-2d" x="74.804688"/>
     <use xlink:href="#DejaVuSans-50" x="110.888672"/>
     <use xlink:href="#DejaVuSans-61" x="166.691406"/>
     <use xlink:href="#DejaVuSans-69" x="227.970703"/>
     <use xlink:href="#DejaVuSans-72" x="255.753906"/>
     <use xlink:href="#DejaVuSans-73" x="296.867188"/>
    </g>
   </g>
  </g>
 </g>
 <defs>
  <clipPath id="p870a927ed0">
   <rect x="7.2" y="29.612625" width="167.4" height="166.32"/>
  </clipPath>
 </defs>
</svg>
